<svg id="Ai" xmlns="http://www.w3.org/2000/svg" viewBox="0 0 171.56 122.43"><defs><style>.cls-1{fill:#ffd499;}</style></defs><title>ai</title><path class="cls-1" d="M894.58,68.16a12.76,12.76,0,0,0-5.87-1.43H742.81A12.84,12.84,0,0,0,730,79.56v96.77a12.9,12.9,0,0,0,.78,4.41h0a12.9,12.9,0,0,0,12,8.41h145.9a12.84,12.84,0,0,0,12.83-12.83V79.56A12.83,12.83,0,0,0,894.58,68.16ZM735,79.56a7.84,7.84,0,0,1,7.83-7.83H870.08a36.81,36.81,0,0,0-11.62,13.45,13.45,13.45,0,0,0-2.21-.18,13.77,13.77,0,0,0-13,9.32,22.51,22.51,0,0,0-10-2.32,22.78,22.78,0,0,0-22.72,21.6,17.25,17.25,0,0,0-10,15.61l-1.3-2.78a6.86,6.86,0,0,0-1.44-2,7.12,7.12,0,0,0-4.89-2.05,0,0,0,0,0,0,0,19.69,19.69,0,0,0-1.8-1.61l.05-.07a22.32,22.32,0,0,0-5.61-31.07,22.6,22.6,0,0,0-10-3.82,22.06,22.06,0,0,0-6.68.2h-.06a22.31,22.31,0,0,0-12.15,37.32,9.35,9.35,0,0,0-1,1.2,11.36,11.36,0,0,0,2.85,15.81c.32.22.64.42,1,.61a19.66,19.66,0,0,0,4.24,8.26,147.25,147.25,0,0,0-28.7,26.3Zm66.29,61.07a3,3,0,0,1-1.43,3.92l-2,.93-.59-2.2a19.42,19.42,0,0,0,1.29-6.71,16.22,16.22,0,0,0,0-1.84l.74,1.59Zm-37,1.68c.35,0,.7,0,1.06,0l4.12,3,.91.67a7,7,0,0,0-1.58,1.88,1.91,1.91,0,0,0-.16.32,14.73,14.73,0,0,1-1.45-1.4A15.27,15.27,0,0,1,764.24,142.31Zm-5.32-7.37a6.78,6.78,0,0,1-.92-2,7.13,7.13,0,0,0,1.94,2.44,7,7,0,0,0,3.08,1.42,6.54,6.54,0,0,0,1.93.08,4.11,4.11,0,0,0,.6-.08,7,7,0,0,0,5.72-6.53s0-.07,0-.12a7.14,7.14,0,0,0-.11-1.45A7,7,0,0,0,770,125.9a4.7,4.7,0,0,0-.44-.54,6.64,6.64,0,0,1,.63.56,7.22,7.22,0,0,1,1.92,3.76,5.39,5.39,0,0,1,.08.56,6.28,6.28,0,0,1,0,.75,7.25,7.25,0,0,1-5.75,7.06l-.18,0h0a7.13,7.13,0,0,1-3.12-.14,6.76,6.76,0,0,1-2.29-1,7.62,7.62,0,0,1-1.91-2Zm.06-9.47a7,7,0,0,1,3.87-2.3l.22,0a6.48,6.48,0,0,1,.86-.1,6.84,6.84,0,0,1,4.52,1.36,5.78,5.78,0,0,1,.88.77.1.1,0,0,0-.09,0l-.16-.12a5.76,5.76,0,0,0-.83-.48,7.06,7.06,0,0,0-4.33-.73l-.25,0h0l-.51.11a7.16,7.16,0,0,0-3.44,2,6.3,6.3,0,0,0-.69.84,7.18,7.18,0,0,0-1.17,5.42,5.88,5.88,0,0,0,.16.7,7.09,7.09,0,0,1-.56-1.74A7,7,0,0,1,759,125.47ZM794.19,139a15.49,15.49,0,0,1-1.41,4.23c0,.11-.11.22-.17.33a15.74,15.74,0,0,1-7.11,6.84l-1-3.82c0-.12-.05-.24-.07-.36l1.25-1.7a6.45,6.45,0,0,0,.87-1.55,7.12,7.12,0,0,0,.42-1.55l0-.17a6.86,6.86,0,0,0-.16-2.63,7,7,0,0,0-1-2.21,7.24,7.24,0,0,0-1.71-1.79l-.41-.3-6.26-4.6a22,22,0,0,0,5.6-2l.6-.32a22.24,22.24,0,0,0,4.72-3.54,15.61,15.61,0,0,1,2.92,3l.2.27a15.54,15.54,0,0,1,2.57,5.8c0,.18.08.35.11.53a15.52,15.52,0,0,1,.13,4.75C794.28,138.48,794.24,138.75,794.19,139ZM776.3,145.3l-1.56-1.15L773.23,143,770.38,141a11.34,11.34,0,0,0,5.59-7.18l5.72,4.2a2.43,2.43,0,0,1,.34.3,3,3,0,0,1,.29,3.83l-1.5,2-.39.53a.31.31,0,0,1-.09.11l0,0a2.93,2.93,0,0,1-1.94,1h0A2.94,2.94,0,0,1,776.3,145.3Zm-11.07-31a7,7,0,0,1-2.82-1.17,7.11,7.11,0,0,1-2-2,6.06,6.06,0,0,0,4.38,2.21,6,6,0,0,0,4-1.23,6,6,0,0,0-4.74-10.76l-.19,0a6,6,0,0,0-3.89,2.78,7.23,7.23,0,0,1,4.1-3.76,7.35,7.35,0,0,1,1.16-.32h0a7.18,7.18,0,0,1,3.17.13,7.23,7.23,0,0,1-.58,14.1h0A7,7,0,0,1,765.23,114.27Zm-1.76-7.94h0a1.9,1.9,0,1,1,.17,2.13,1.94,1.94,0,0,1-.39-.86A1.89,1.89,0,0,1,763.47,106.33Zm24.24,12c-.05.07-.09.14-.15.21a18.22,18.22,0,0,1-2.92,3.21,17.65,17.65,0,0,1-2.33,1.71,18.26,18.26,0,0,1-10.21-5.88c-.1-.1-.19-.21-.28-.32a11.42,11.42,0,0,0,5.9-12.08,11.4,11.4,0,0,0-7.62-8.77,18.2,18.2,0,0,1,6.16-6.3,18.21,18.21,0,0,1,14.39,14.55v.07A18,18,0,0,1,787.71,118.29Zm-22-22.47c-.39,0-.79.08-1.19.15h0a11.36,11.36,0,0,0-4.43,20.51,11.21,11.21,0,0,0,7.53,2c.21.32.43.62.67.92s.54.66.82,1a9.83,9.83,0,0,0-1.57-.49,11.51,11.51,0,0,0-4.57-.1h0a11.42,11.42,0,0,0-3,1A18.18,18.18,0,0,1,769.48,90h0l.28,0A22.17,22.17,0,0,0,765.7,95.82Zm3.09,34.07a4.47,4.47,0,0,1-3.68,4.51,3.8,3.8,0,0,1-1.06.06,3.93,3.93,0,0,1-.91-.14,4.55,4.55,0,0,1-3.26-3.54q0-.3-.06-.6h0a4.42,4.42,0,0,1,1.22-3.26,2.38,2.38,0,0,1,.36-.35,4.48,4.48,0,0,1,4.5-.78,4.79,4.79,0,0,1,.78.4,4.42,4.42,0,0,1,2.05,3s0,.06,0,.09A3.31,3.31,0,0,1,768.79,129.89ZM772,152.21a3,3,0,0,1,.06-1.72,2.45,2.45,0,0,1,.24-.52,2.87,2.87,0,0,1,1.57-1.3,7,7,0,0,0,5.42,1.21,7.27,7.27,0,0,0,1.36-.39,1.42,1.42,0,0,1,.14.36l.5,1.88,1.09,4,1.11,4.17a3,3,0,0,1-2.08,3.62l-3.08.83a2.95,2.95,0,0,1-3.62-2.09l-1.91-7.09Zm15.14,4.47-.59-2.21a19.61,19.61,0,0,0,6.58-4.63,16.47,16.47,0,0,0,1.21-1.42l.49,1.84,1.09,4.06a3,3,0,0,1-2.08,3.62l-3.08.82a3,3,0,0,1-2.24-.29A2.92,2.92,0,0,1,787.18,156.68Zm109.36,19.65a7.84,7.84,0,0,1-7.83,7.83H742.81a7.83,7.83,0,0,1-6.1-2.92,142.59,142.59,0,0,1,30.8-28.65l.45.31.09.38,2.71,10.08a7.07,7.07,0,0,0,8.11,5.13c.19,0,.38-.08.57-.13l3.08-.82a7.08,7.08,0,0,0,5-5,7,7,0,0,0,3.79.34,5.07,5.07,0,0,0,.56-.13l3.09-.82a7.09,7.09,0,0,0,5-8.69l-1-3.71,2.65-1.23a7.11,7.11,0,0,0,3.42-9.42L803.19,135l1.33-.42q6.35-2,13-3.43c1.23-.26,2.47-.51,3.72-.74q5.34-1,10.8-1.57c1-.11,2-.21,3-.29q5.47-.47,11.06-.5h1.83l2,0,1.79.05a140.32,140.32,0,0,1,15.45,1.35c1.69.24,3.37.52,5,.82l1.46.27,2.3.46a139.35,139.35,0,0,1,16.44,4.5c1.4.48,2.8,1,4.18,1.5v39.35Zm-17.2-49.71c-1-.24-2.06-.46-3.09-.68q-5-1-10.13-1.69c-1.42-.19-2.85-.36-4.28-.5q-3.71-.37-7.47-.57-1.59-.08-3.21-.12c-1.38,0-2.77-.06-4.16-.06h-.29c-1.06,0-2.12,0-3.18,0-3.2.08-6.36.25-9.5.53-1,.09-2.06.19-3.09.31q-7,.77-13.85,2.2c-1.05.22-2.1.45-3.14.7q-5.3,1.22-10.44,2.84c0-.12,0-.25,0-.37a14.22,14.22,0,0,1,7.11-12.32,13.65,13.65,0,0,1,2.92-1.29c0-.3,0-.59,0-.89a18.46,18.46,0,0,1,.13-2.24,19.74,19.74,0,0,1,28.94-15.17h0a19.1,19.1,0,0,1,2.94,1.93c0-.17,0-.35,0-.53A10.76,10.76,0,0,1,856.25,88c.3,0,.6,0,.9,0a10.46,10.46,0,0,1,3,.68A29.42,29.42,0,0,1,861.41,86a33.91,33.91,0,0,1,14.43-14.27h12.87a7.84,7.84,0,0,1,7.83,7.83v52.1A141,141,0,0,0,879.34,126.62Z" transform="translate(-729.98 -66.73)"/></svg>