<svg id="Layer_2" data-name="Layer 2" xmlns="http://www.w3.org/2000/svg" viewBox="0 0 669.07 224.28"><defs><style>.cls-1,.cls-6{fill:none;}.cls-1{opacity:0;}.cls-2{fill:#007399;}.cls-3{fill:#666;}.cls-4{fill:#91f9d9;}.cls-5{fill:#fff;}.cls-28,.cls-7{fill:gray;}.cls-8{fill:#9ff;}.cls-9{fill:#cff;}.cls-10{fill:#4d4d4d;}.cls-11{fill:#945ae5;}.cls-12{fill:#a97beb;}.cls-13{fill:#9ae54e;}.cls-14{fill:#aeeb71;}.cls-15{fill:#ff7d7d;}.cls-16{fill:#ff9797;}.cls-17{fill:#ffcb63;}.cls-18{fill:#ffd580;}.cls-19{fill:#ffb5b5;}.cls-20{fill:#bdff7b;}.cls-21{fill:#ffe4ad;}.cls-22{fill:#cfbceb;}.cls-23{fill:#999;}.cls-24{fill:#b3b3b3;}.cls-25{fill:#ccc;}.cls-26{fill:#d79eff;}.cls-27{fill:#f2f2f2;}.cls-28{stroke:#f2f2f2;stroke-miterlimit:10;stroke-width:2px;}.cls-29{fill:#e6e6e6;}.cls-30{fill:#9f9;}.cls-31{fill:#d4a9d2;}.cls-32{fill:#ff9;}</style></defs><title>astronaut_center_no_fill</title><polygon class="cls-1" points="1.17 107.5 189.01 109.9 204.15 103.26 93.47 99.21 1.17 107.5"/><polygon class="cls-1" points="397.23 224.28 61.75 224.28 196.06 102.55 262.92 102.55 397.23 224.28"/><ellipse class="cls-1" cx="334.54" cy="119.7" rx="334.54" ry="63.19"/><ellipse class="cls-2" cx="332.12" cy="122.85" rx="83.56" ry="10.26"/><ellipse class="cls-2" cx="189.93" cy="108.95" rx="24.61" ry="6.39"/><path class="cls-3" d="M960,955c-18.79,0-36.46-.74-49.75-2.09a121.34,121.34,0,0,1-15.13-2.27c-4.13-1-6-2-6-3.34s1.84-2.34,6-3.33a121,121,0,0,1,15.13-2.28c13.29-1.34,31-2.08,49.75-2.08s36.46.74,49.75,2.08a121,121,0,0,1,15.13,2.28c4.13,1,6,2,6,3.33s-1.84,2.35-6,3.34a121.34,121.34,0,0,1-15.13,2.27C996.46,954.25,978.79,955,960,955Z" transform="translate(-627.98 -827.59)"/><path class="cls-4" d="M960,940.18c38.81,0,70.27,3.19,70.27,7.11s-31.46,7.12-70.27,7.12-70.27-3.19-70.27-7.12,31.46-7.11,70.27-7.11m0-1.17c-18.81,0-36.5.75-49.81,2.09A122.69,122.69,0,0,0,895,943.39c-4.5,1.08-6.42,2.24-6.42,3.9s1.92,2.83,6.42,3.91a121.12,121.12,0,0,0,15.21,2.28c13.31,1.35,31,2.09,49.81,2.09s36.5-.74,49.81-2.09A121.12,121.12,0,0,0,1025,951.2c4.5-1.08,6.42-2.25,6.42-3.91s-1.92-2.82-6.42-3.9a122.69,122.69,0,0,0-15.21-2.29c-13.31-1.34-31-2.09-49.81-2.09Z" transform="translate(-627.98 -827.59)"/><rect class="cls-3" x="261.75" y="105.25" width="140.54" height="14.45"/><path class="cls-4" d="M1030.27,938.44v1.94c0,3.35-22.92,6.16-53.76,6.91-5.3.13-10.82.2-16.51.2s-11.21-.07-16.51-.2c-30.84-.75-53.76-3.56-53.76-6.91v-1.94a2.37,2.37,0,0,0-1.17,1.94,2.34,2.34,0,0,0,1.17,1.93,15.54,15.54,0,0,0,5.25,2,122.69,122.69,0,0,0,15.21,2.29c2.62.26,5.42.51,8.36.72,12,.89,26.35,1.37,41.45,1.37s29.48-.48,41.45-1.37c2.94-.21,5.73-.46,8.36-.72a122.69,122.69,0,0,0,15.21-2.29,15.54,15.54,0,0,0,5.25-2,2.34,2.34,0,0,0,1.17-1.93A2.37,2.37,0,0,0,1030.27,938.44Z" transform="translate(-627.98 -827.59)"/><path class="cls-3" d="M960,940.54c-18.79,0-36.46-.74-49.75-2.09a121.34,121.34,0,0,1-15.13-2.27c-4.13-1-6-2-6-3.34s1.84-2.34,6-3.33a121,121,0,0,1,15.13-2.28c13.29-1.34,31-2.08,49.75-2.08s36.46.74,49.75,2.08a121,121,0,0,1,15.13,2.28c4.13,1,6,2,6,3.33s-1.84,2.35-6,3.34a121.34,121.34,0,0,1-15.13,2.27C996.46,939.8,978.79,940.54,960,940.54Z" transform="translate(-627.98 -827.59)"/><path class="cls-4" d="M960,925.73c38.81,0,70.27,3.18,70.27,7.11S998.81,940,960,940s-70.27-3.19-70.27-7.12,31.46-7.11,70.27-7.11m0-1.17c-18.81,0-36.5.75-49.81,2.09A122.69,122.69,0,0,0,895,928.94c-4.5,1.08-6.42,2.24-6.42,3.9s1.92,2.83,6.42,3.91A121.12,121.12,0,0,0,910.19,939c13.31,1.35,31,2.09,49.81,2.09s36.5-.74,49.81-2.09a121.12,121.12,0,0,0,15.21-2.28c4.5-1.08,6.42-2.25,6.42-3.91s-1.92-2.82-6.42-3.9a122.69,122.69,0,0,0-15.21-2.29c-13.31-1.34-31-2.09-49.81-2.09Z" transform="translate(-627.98 -827.59)"/><path class="cls-5" d="M1006.58,928.13c-12.44-1.26-29-2-46.58-2s-34.14.69-46.58,2-19.3,2.93-19.3,4.71,6.85,3.46,19.3,4.72,29,2,46.58,2,34.14-.69,46.58-2,19.3-2.94,19.3-4.72S1019,929.39,1006.58,928.13Zm-46.58,11c-34,0-61.59-2.8-61.59-6.24S926,926.61,960,926.61s61.59,2.8,61.59,6.23S994,939.08,960,939.08Z" transform="translate(-627.98 -827.59)"/><path class="cls-5" d="M961.26,926.93v1.33H957v-1.34Z" transform="translate(-627.98 -827.59)"/><path class="cls-5" d="M961.26,937.43v1.33H957v-1.34h4.28Z" transform="translate(-627.98 -827.59)"/><path class="cls-5" d="M949.75,937.31l-1.11.42-2.35.89-4.14-.12,2.36-.89,1.12-.42C947,937.24,948.35,937.28,949.75,937.31Z" transform="translate(-627.98 -827.59)"/><path class="cls-5" d="M976.55,927.19l-2.25.85-1.11.42c-1.36-.05-2.74-.08-4.15-.11l1.11-.42,2.26-.85Z" transform="translate(-627.98 -827.59)"/><path class="cls-5" d="M938.94,936.9l-2.14.38-4.6.81-3.72-.22,4.63-.81,2.14-.38C936.44,936.76,937.68,936.84,938.94,936.9Z" transform="translate(-627.98 -827.59)"/><path class="cls-5" d="M990.64,927.84l-4.29.75-2.14.38-3.72-.22,2.14-.37,4.3-.76Z" transform="translate(-627.98 -827.59)"/><path class="cls-5" d="M929.53,936.23l-3,.31-6.56.67-3-.31,9.59-1C927.46,936,928.47,936.14,929.53,936.23Z" transform="translate(-627.98 -827.59)"/><path class="cls-5" d="M1002.58,928.84l-6,.61-3,.31c-1-.11-2-.21-3-.31l9.08-.92Z" transform="translate(-627.98 -827.59)"/><path class="cls-5" d="M922.06,935.35l-3.71.22-8,.46-2.14-.37,8-.47,3.72-.22C920.55,935.1,921.28,935.23,922.06,935.35Z" transform="translate(-627.98 -827.59)"/><path class="cls-5" d="M1011.56,930.12l-7.43.43-3.72.22c-.65-.13-1.36-.26-2.12-.38l3.71-.21,7.42-.44Z" transform="translate(-627.98 -827.59)"/><path class="cls-5" d="M917,934.3l-4.15.11-8.81.24-1.11-.42,8.76-.24,4.14-.11A10.83,10.83,0,0,0,917,934.3Z" transform="translate(-627.98 -827.59)"/><path class="cls-5" d="M1017,931.59l-8.42.23-4.14.11a9,9,0,0,0-1.06-.42l4.14-.11,8.38-.23Z" transform="translate(-627.98 -827.59)"/><path class="cls-5" d="M914.79,933.15H901.56v-.43h13.15a.25.25,0,0,0,0,.12A.52.52,0,0,0,914.79,933.15Z" transform="translate(-627.98 -827.59)"/><path class="cls-5" d="M1018.44,932.72v.43h-13.23a.52.52,0,0,0,.1-.31.25.25,0,0,0,0-.12Z" transform="translate(-627.98 -827.59)"/><path class="cls-5" d="M916.52,931.55a7.37,7.37,0,0,0-1,.42l-4.15-.11-8.4-.23,1.11-.42,8.31.23Z" transform="translate(-627.98 -827.59)"/><path class="cls-5" d="M1017,934.28l-1.1.42-8.89-.25-4.15-.11a10.37,10.37,0,0,0,1.2-.41l4.15.11Z" transform="translate(-627.98 -827.59)"/><path class="cls-5" d="M921.25,930.47c-.74.12-1.43.25-2,.38l-3.72-.22-7.28-.42,2.14-.38,7.2.42Z" transform="translate(-627.98 -827.59)"/><path class="cls-5" d="M1011.56,935.75l-2.14.37-8.25-.48-3.72-.22c.8-.12,1.55-.24,2.25-.37l3.71.22Z" transform="translate(-627.98 -827.59)"/><path class="cls-5" d="M928.62,929.54c-1,.1-2,.2-3,.31l-3-.3L916.9,929l3-.31,5.66.57Z" transform="translate(-627.98 -827.59)"/><path class="cls-5" d="M1002.58,937l-3,.31-10-1,3.12-.3,3,.31Z" transform="translate(-627.98 -827.59)"/><path class="cls-5" d="M938.17,928.83l-3.65.22-2.15-.37-3.89-.69,3.72-.21,3.83.67Z" transform="translate(-627.98 -827.59)"/><path class="cls-5" d="M990.64,938l-3.71.22-5.08-.89L979.7,937l3.76-.2,2.14.37Z" transform="translate(-627.98 -827.59)"/><path class="cls-5" d="M949.31,928.39c-1.4,0-2.77.07-4.12.12l-1.11-.42-1.93-.73,4.14-.11,1.9.72Z" transform="translate(-627.98 -827.59)"/><path class="cls-5" d="M976.55,938.68l-4.14.11-2.71-1-1.11-.42c1.42,0,2.8-.06,4.17-.11l1.11.42Z" transform="translate(-627.98 -827.59)"/><path class="cls-5" d="M914.69,932.84a.25.25,0,0,1,0-.12h-4.29a.5.5,0,0,0,0,.12.59.59,0,0,0,.09.31h4.3A.52.52,0,0,1,914.69,932.84Zm-2.31-1.4a8.84,8.84,0,0,0-1,.42l4.15.11a7.37,7.37,0,0,1,1-.42Zm3.48,2.44-4.14.11a10.06,10.06,0,0,0,1.16.42l4.15-.11A10.83,10.83,0,0,1,915.86,933.88Zm1.68-3.63c-.74.12-1.43.25-2.06.38l3.72.22c.62-.13,1.31-.26,2-.38Zm8.05-1c-1,.1-2,.21-3,.32l3,.3c.93-.11,1.92-.21,3-.31Zm10.44-.78-3.66.23,2.15.37,3.65-.22Zm36.73,8.79c-1.37,0-2.75.08-4.17.11l1.11.42,4.17-.11Zm10.7-.47-3.76.2,2.15.38q1.92-.09,3.75-.21Zm9.2-.75-3.12.3,3,.31,3.1-.3Zm7-1c-.7.13-1.45.25-2.25.37l3.72.22c.8-.12,1.54-.24,2.24-.37Zm4.33-1.12a10.37,10.37,0,0,1-1.2.41l4.15.11c.45-.13.85-.27,1.2-.41Zm5.55-1.21h-4.29a.25.25,0,0,1,0,.12.52.52,0,0,1-.1.31h4.3a.59.59,0,0,0,.09-.31A.5.5,0,0,0,1009.58,932.72Zm-39.43-4.79-1.11.42c1.41,0,2.79.06,4.15.11l1.11-.42C972.94,928,971.56,928,970.15,927.93Zm-13.17-.1v.44h4.28v-.44H957Zm-12.9.26,1.11.42c1.35,0,2.72-.09,4.12-.12l-1.12-.42Q946.1,928,944.08,928.09Zm38.55.29-2.14.37,3.72.22,2.14-.38C985.15,928.52,983.9,928.44,982.63,928.38Zm10.88.77-3,.3c1.06.1,2.07.2,3,.31l3-.31C995.57,929.35,994.56,929.24,993.51,929.15Zm8.49,1-3.71.21c.76.12,1.47.25,2.12.38l3.72-.22C1003.47,930.42,1002.76,930.3,1002,930.18Zm5.49,1.22-4.14.11a9,9,0,0,1,1.06.42l4.14-.11A6.49,6.49,0,0,0,1007.49,931.4Zm-47.49,6h-3v.43h4.28v-.43Zm-14.37-.24-1.12.42c1.35,0,2.73.09,4.13.12l1.11-.42C948.35,937.28,947,937.24,945.63,937.19Zm-10.38-.51-2.14.38,3.69.22,2.14-.38C937.68,936.84,936.44,936.76,935.25,936.68Zm-8.76-.75-3,.3c1,.11,2,.21,3,.31l3-.31C928.47,936.14,927.46,936,926.49,935.93Zm-6.6-1-3.72.22c.67.13,1.4.25,2.18.38l3.71-.22C921.28,935.23,920.55,935.1,919.89,935Z" transform="translate(-627.98 -827.59)"/><path class="cls-6" d="M943.49,947.29H918.55c-2.94-.21-5.74-.46-8.36-.72A122.69,122.69,0,0,1,895,944.28a15.54,15.54,0,0,1-5.25-2v-1.93C889.73,943.73,912.65,946.54,943.49,947.29Z" transform="translate(-627.98 -827.59)"/><path class="cls-4" d="M1030.27,940.38v1.93a15.54,15.54,0,0,1-5.25,2,122.69,122.69,0,0,1-15.21,2.29c-2.63.26-5.42.51-8.36.72H976.51C1007.35,946.54,1030.27,943.73,1030.27,940.38Z" transform="translate(-627.98 -827.59)"/><ellipse class="cls-3" cx="331.91" cy="104.96" rx="39.64" ry="3.49"/><path class="cls-4" d="M959.74,936.62c-10.55,0-20.46-.36-27.92-1a78.48,78.48,0,0,1-8.57-1.11c-2.54-.53-3.58-1.09-3.58-1.93s1-1.4,3.58-1.93a78.14,78.14,0,0,1,8.56-1.12c7.51-.66,17.48-1,28.08-1v0h.16c10.55,0,20.46.36,27.93,1a78.14,78.14,0,0,1,8.56,1.12c2.54.53,3.58,1.08,3.58,1.92s-1,1.4-3.58,1.93a80.23,80.23,0,0,1-8.56,1.13c-7.51.66-17.48,1-28.08,1ZM921,932.56c.5.32,2.68,1.2,11.83,2,7.32.6,16.89.93,27,.93h.16c10.12,0,19.75-.34,27.11-1,9.16-.76,11.33-1.64,11.83-2-.5-.32-2.67-1.19-11.83-1.95-7.36-.61-17-.94-27.11-.93s-19.76.34-27.12,1C923.62,931.36,921.45,932.24,921,932.56Z" transform="translate(-627.98 -827.59)"/><polygon class="cls-3" points="370.86 104.95 371.16 95.03 293.08 95.07 292.97 104.97 370.86 104.95"/><path class="cls-4" d="M999,926.82l0,1.23h0c-.51.32-2.79,1.2-11.94,2-7.36.61-17,1-27.11,1h-.16c-10.07,0-19.64-.34-27-.94-9.15-.76-11.29-1.63-11.79-2v-1.3c-.92.36-1.33.78-1.33,1.3s.4.94,1.31,1.3a12.92,12.92,0,0,0,2.27.63,78,78,0,0,0,8.57,1.12c1.88.16,3.93.31,6.1.44,6.41.37,13.94.57,21.82.57h.16c7.93,0,15.52-.21,22-.59,2.18-.13,4.22-.27,6.11-.44a78.14,78.14,0,0,0,8.56-1.12,14.76,14.76,0,0,0,2.37-.67c.84-.36,1.21-.76,1.21-1.26S999.77,927.17,999,926.82Z" transform="translate(-627.98 -827.59)"/><ellipse class="cls-7" cx="331.91" cy="94.78" rx="39.64" ry="3.49"/><path class="cls-5" d="M973.82,919.47c-3.52-.13-7.21-.21-11-.24v.52c6.26,0,12,.27,16.49.61l4.14-.37C980.57,919.77,977.34,919.6,973.82,919.47Zm19,1.66c-1.35-.28-3.14-.54-5.34-.77l-4.15.37c3.63.4,5.95.9,6.39,1.44h5.85C995.35,921.81,994.43,921.46,992.84,921.13Zm-14.36,3.3c-4.39.3-9.78.51-15.66.56v.51c3.79,0,7.48-.1,11-.24,3.19-.12,6.15-.28,8.81-.47Zm-48.29-1.73h-5.87a6.89,6.89,0,0,0,2.63.9,60.39,60.39,0,0,0,6,.84l4.14-.37C933.41,923.7,930.92,923.23,930.19,922.7Zm2.1-2.32c-2.2.24-4,.5-5.34.78-1.59.33-2.51.67-2.75,1h5.85c.44-.54,2.76-1,6.39-1.45Zm9,4.06-4.15.37c2.66.19,5.61.35,8.81.46,3.51.13,7.2.21,11,.24V925C951.09,924.94,945.7,924.74,941.32,924.44Zm48.28-1.76c-.73.53-3.22,1-6.92,1.39l4.13.36a59.93,59.93,0,0,0,6-.85,6.89,6.89,0,0,0,2.63-.9ZM946,919.48c-3.52.13-6.75.31-9.62.53l4.14.36c4.53-.34,10.23-.56,16.49-.62v-.51C953.18,919.26,949.49,919.34,946,919.48Z" transform="translate(-627.98 -827.59)"/><ellipse class="cls-8" cx="331.91" cy="94.78" rx="21.33" ry="1.88"/><ellipse class="cls-9" cx="331.91" cy="94.78" rx="13.4" ry="1.18"/><path class="cls-4" d="M960,927.45c-10.55,0-20.47-.44-27.94-1.23a65.92,65.92,0,0,1-8.57-1.35c-2.5-.63-3.56-1.29-3.56-2.21s1.06-1.59,3.56-2.21a65,65,0,0,1,8.57-1.37c7.51-.8,17.48-1.24,28.09-1.25s20.59.43,28.09,1.23a65.54,65.54,0,0,1,8.58,1.36c2.49.62,3.56,1.28,3.56,2.2s-1.07,1.59-3.56,2.22a65.62,65.62,0,0,1-8.57,1.36,279.77,279.77,0,0,1-28.1,1.25Zm-38.89-4.79c.17.22,1.52,1.43,11.68,2.46,7.36.75,17,1.16,27.21,1.16h.15c10.26,0,20-.42,27.37-1.18,10.16-1,11.51-2.25,11.67-2.48-.16-.22-1.51-1.43-11.67-2.46-7.4-.75-17.11-1.16-27.37-1.16s-20,.42-27.36,1.18C922.58,921.22,921.23,922.44,921.06,922.66Z" transform="translate(-627.98 -827.59)"/><path class="cls-6" d="M999,929.05l0,1.26-.07,2.23h-17l-44,0H921l0-2.19v-1.3c.5.33,2.64,1.2,11.79,2,7.32.6,16.89.94,27,.94h.16c10.12,0,19.75-.35,27.11-1C996.16,930.25,998.44,929.37,999,929.05Z" transform="translate(-627.98 -827.59)"/><rect class="cls-10" x="966.53" y="867.86" width="2.02" height="2.57" transform="translate(-959.7 100.5) rotate(-44.53)"/><rect class="cls-10" x="949.26" y="847.51" width="2.33" height="2.16" transform="translate(-950.19 82.59) rotate(-44.53)"/><path class="cls-11" d="M956.33,874.79,951,880.08,946.16,885l-.83.84-2.28,2.28a1.79,1.79,0,0,1-2.52,0l-7-7-.83-.84-5-5a1.77,1.77,0,0,1,0-2.52l1.88-1.89,5.24-5.23h0l.94-.94,5.21-5.22a1.79,1.79,0,0,1,2.39-.12l.13.12,12.81,12.81A1.79,1.79,0,0,1,956.33,874.79Z" transform="translate(-627.98 -827.59)"/><path class="cls-12" d="M954.91,873.37l-11.39,11.39a1.77,1.77,0,0,1-2.52,0l-7.48-7.47-.83-.84-3.08-3.08a1.79,1.79,0,0,1,0-2.52l5.24-5.23h0l.94-.94,5.21-5.22a1.79,1.79,0,0,1,2.39-.12l.13.12,11.39,11.39A1.77,1.77,0,0,1,954.91,873.37Z" transform="translate(-627.98 -827.59)"/><path class="cls-13" d="M992.27,874.79l-3.49,3.49-.87.87L979,888.07a1.79,1.79,0,0,1-2.52,0l-12.81-12.81a1.79,1.79,0,0,1,0-2.52l1.89-1.89L977,859.46a1.79,1.79,0,0,1,2.52,0l11.39,11.39.06.07,1.35,1.35A1.77,1.77,0,0,1,992.27,874.79Z" transform="translate(-627.98 -827.59)"/><path class="cls-14" d="M990.86,873.37,988,876.2l-6.42,6.42-.59.59-1.55,1.55a1.77,1.77,0,0,1-2.52,0l-11.39-11.39a1.79,1.79,0,0,1,0-2.52L977,859.46a1.79,1.79,0,0,1,2.52,0l11.39,11.39.06.07A1.77,1.77,0,0,1,990.86,873.37Z" transform="translate(-627.98 -827.59)"/><path class="cls-15" d="M974.08,855.9,960.8,869.17a1.77,1.77,0,0,1-2.52,0l-12.8-12.8a1.77,1.77,0,0,1,0-2.52l3.61-3.61.6-.6,9.06-9.07a1.8,1.8,0,0,1,1.35-.52h0a1.82,1.82,0,0,1,1.16.52l2.84,2.84.6.6,9.37,9.37A1.79,1.79,0,0,1,974.08,855.9Z" transform="translate(-627.98 -827.59)"/><path class="cls-16" d="M972.85,854.48l-11.39,11.39a1.77,1.77,0,0,1-2.52,0l-11.39-11.39a1.79,1.79,0,0,1,0-2.52l11.39-11.39a1.82,1.82,0,0,1,1.16-.52h0a1.79,1.79,0,0,1,1.35.52L972.85,852a1.7,1.7,0,0,1,.39.58A1.76,1.76,0,0,1,972.85,854.48Z" transform="translate(-627.98 -827.59)"/><path class="cls-17" d="M974.08,893.34l-7.45,7.45-5.83,5.83a1.77,1.77,0,0,1-2.52,0l-12.8-12.8a1.77,1.77,0,0,1,0-2.52L958.75,878a1.79,1.79,0,0,1,2.52,0l3.32,3.32.83.83,3.39,3.39h0l.83.83h0l3,3,1.42,1.42A1.78,1.78,0,0,1,974.08,893.34Z" transform="translate(-627.98 -827.59)"/><path class="cls-18" d="M972.66,891.93l-6.78,6.79-4.61,4.6a1.77,1.77,0,0,1-2.52,0l-2-2-9.44-9.44a1.79,1.79,0,0,1,0-2.52L958.75,878a1.79,1.79,0,0,1,2.52,0l3.32,3.32,5,5,3,3A1.77,1.77,0,0,1,972.66,891.93Z" transform="translate(-627.98 -827.59)"/><polygon class="cls-19" points="332.17 23.03 331.34 23.03 331.34 19.08 329.46 16.89 329.46 13.88 330.29 13.88 330.29 16.58 332.17 18.78 332.17 23.03"/><polygon class="cls-19" points="341.38 20.88 341.38 24.3 339.45 27.12 339.45 32.23 338.62 32.23 338.62 26.86 340.55 24.04 340.55 20.05 341.38 20.88"/><path class="cls-19" d="M964.79,843.9a.76.76,0,0,1-.08.11l-.38.56v2.56h-.84v-2.82l.08-.11.54-.79a.44.44,0,0,0,.08-.11Z" transform="translate(-627.98 -827.59)"/><circle class="cls-19" cx="335.93" cy="19.54" r="1"/><circle class="cls-20" cx="350.02" cy="39.56" r="1"/><circle class="cls-21" cx="325.2" cy="61.25" r="1"/><circle class="cls-22" cx="320.11" cy="38.93" r="1"/><circle class="cls-22" cx="314.82" cy="43.24" r="1"/><circle class="cls-21" cx="332.8" cy="72.97" r="1"/><circle class="cls-20" cx="356.63" cy="39.44" r="1"/><path class="cls-19" d="M950.11,850.25v2.82h-.83v-2.56l-.11-.16a1,1,0,0,0-.08-.11l.6-.6.08.11.27.39Z" transform="translate(-627.98 -827.59)"/><circle class="cls-19" cx="321.71" cy="25.48" r="1"/><polygon class="cls-19" points="326.9 24.2 326.56 28.77 324.12 31.21 324.11 31.43 323.95 35.23 323.15 34.43 323.3 30.85 323.41 30.73 325.75 28.4 326.07 24.14 326.9 24.2"/><polygon class="cls-20" points="352.35 32.74 350.44 34.86 350.41 38.63 350.41 39.56 349.58 39.56 349.58 38.66 349.61 34.53 351.76 32.15 352.35 32.74"/><polygon class="cls-20" points="360.91 48.01 360.8 50.69 359.93 51.56 360.05 48.61 360.06 48.34 356.21 44.49 356.21 39.44 357.05 39.44 357.05 44.14 360.91 48.01"/><polygon class="cls-20" points="345.91 49.07 345.82 53.66 345.79 54 345.47 57.45 344.7 56.68 345 53.59 345 53.21 345.07 49.42 341.83 46.31 341.83 40.18 342.67 40.18 342.67 45.95 345.91 49.07"/><path class="cls-20" d="M982,883l0,.19c-.06.82-.11,1.52-.16,2.14l-.91.9c.08-1,.16-2,.23-2.91l-.08-.07-2.5-2.4v-4.13h.83v3.77l2.26,2.17Z" transform="translate(-627.98 -827.59)"/><polygon class="cls-21" points="341.66 58.8 341.66 60.37 338.99 63.98 338.76 70.26 338.65 73.2 337.79 74.06 337.89 71.13 338.16 63.7 340.83 60.09 340.83 57.97 341.66 58.8"/><polygon class="cls-21" points="328.82 69.21 328.82 77.55 327.99 76.72 327.99 69.57 324.78 66.54 324.78 61.25 325.62 61.25 325.62 66.18 328.82 69.21"/><polygon class="cls-21" points="333.22 72.97 332.39 72.97 332.39 68.57 335.42 63.57 336.14 64 333.22 68.8 333.22 72.97"/><polygon class="cls-21" points="337.44 54.58 337.44 56.76 334.63 60.86 333.95 60.39 336.61 56.5 336.61 53.75 337.44 54.58"/><circle class="cls-22" cx="309.8" cy="49.4" r="1"/><path class="cls-22" d="M938.2,871v6h-.84v-5.75l-1-1.41-.52-.71-1.18-1.61,0-.16c.06-.53.12-1.13.19-1.73h0l.94-.94c-.11,1-.22,2-.28,2.6Z" transform="translate(-627.98 -827.59)"/><polygon class="cls-22" points="323.89 49.12 323.89 51.66 323.05 52.49 323.05 49.37 319.95 44.55 319.87 42.8 319.82 41.71 319.73 39.86 319.69 38.95 320.52 38.91 320.56 39.82 320.77 44.29 323.77 48.94 323.89 49.12"/><polygon class="cls-22" points="318.18 54.83 318.18 57.36 317.35 58.2 317.35 55.07 314.8 51.05 314.45 44.17 314.4 43.26 315.23 43.22 315.28 44.13 315.62 50.78 318.06 54.65 318.18 54.83"/><path class="cls-22" d="M948.37,869.82l-.52.57,0,.05-4.42-4v-7.07l.13.12.7.7V866l3.58,3.26Z" transform="translate(-627.98 -827.59)"/><polygon class="cls-22" points="308.69 41.76 308.36 42.24 305.54 46.3 305.54 53.47 304.71 52.63 304.71 46.05 307.84 41.53 308.01 41.29 308.69 41.76"/><path class="cls-10" d="M964.74,866.85l-1-.62.31-1.2,1.08-1.06s.85-.1.86,0-.16,1-.16,1.1S964.74,866.85,964.74,866.85Z" transform="translate(-627.98 -827.59)"/><rect class="cls-10" x="970.89" y="864.41" width="4.5" height="12.83" transform="translate(-958.72 115.58) rotate(-45)"/><rect class="cls-23" x="971.65" y="863.54" width="4.5" height="12.29" transform="translate(-957.7 115.78) rotate(-45)"/><circle class="cls-10" cx="350.6" cy="47.21" r="5.11"/><circle class="cls-23" cx="350.6" cy="46.19" r="4.09"/><rect class="cls-10" x="956.12" y="843.48" width="4.5" height="20.96" transform="translate(-951.13 100.2) rotate(-45)"/><path class="cls-10" d="M964.11,862.54c0,.17-.36,3.69-.36,3.69l3.84-3.57.06-3.44Z" transform="translate(-627.98 -827.59)"/><path class="cls-7" d="M965.2,862c0,.15-.46,4.9-.46,4.9l2.89-2.85.74-5.22Z" transform="translate(-627.98 -827.59)"/><rect class="cls-23" x="957.12" y="842.48" width="4.5" height="20.96" transform="translate(-950.13 100.61) rotate(-45)"/><path class="cls-23" d="M957.48,852.14V864.6l1.27,1.27a1.77,1.77,0,0,0,2.52,0l.72-.71v-13Z" transform="translate(-627.98 -827.59)"/><path class="cls-10" d="M962,866v2.83L960.8,870a1.79,1.79,0,0,1-2.52,0l-.8-.8v-3.78l1.27,1.27a1.77,1.77,0,0,0,2.52,0Z" transform="translate(-627.98 -827.59)"/><path class="cls-7" d="M962,865.16V868l-1.19,1.18a1.77,1.77,0,0,1-2.52,0l-.8-.8V864.6l1.27,1.27a1.77,1.77,0,0,0,2.52,0Z" transform="translate(-627.98 -827.59)"/><circle class="cls-10" cx="332.5" cy="27.58" r="5.11"/><circle class="cls-23" cx="332.5" cy="26.56" r="4.09"/><path class="cls-10" d="M962.15,878.23v10.85h-4.5V878.46l1.1-1.11a1.79,1.79,0,0,1,2.52,0Z" transform="translate(-627.98 -827.59)"/><path class="cls-7" d="M962.15,878.89v10.86h-4.5V879.13l1.1-1.11a1.79,1.79,0,0,1,2.52,0Z" transform="translate(-627.98 -827.59)"/><circle class="cls-10" cx="331.91" cy="61.25" r="5.11"/><circle class="cls-7" cx="331.91" cy="60.23" r="4.09"/><circle class="cls-24" cx="327.09" cy="21.07" r="0.73"/><circle class="cls-25" cx="327.13" cy="20.98" r="0.64"/><rect class="cls-24" x="955.03" y="847.88" width="0.23" height="1.36" transform="translate(-943.6 153.31) rotate(-47.56)"/><circle class="cls-24" cx="337.69" cy="31.68" r="0.73"/><circle class="cls-25" cx="337.73" cy="31.59" r="0.64"/><rect class="cls-24" x="965.63" y="858.48" width="0.23" height="1.36" transform="translate(-947.97 164.59) rotate(-47.56)"/><circle class="cls-24" cx="344.76" cy="40.83" r="0.73"/><circle class="cls-25" cx="344.8" cy="40.74" r="0.64"/><rect class="cls-24" x="972.7" y="867.63" width="0.23" height="1.36" transform="translate(-952.43 172.78) rotate(-47.56)"/><circle class="cls-24" cx="332.02" cy="54.52" r="0.73"/><circle class="cls-25" cx="332.06" cy="54.43" r="0.64"/><rect class="cls-24" x="959.96" y="881.32" width="0.23" height="1.36" transform="translate(-966.68 167.83) rotate(-47.56)"/><circle class="cls-24" cx="331.8" cy="35.14" r="0.73"/><circle class="cls-25" cx="331.84" cy="35.05" r="0.64"/><rect class="cls-24" x="959.74" y="861.94" width="0.23" height="1.36" transform="translate(-952.45 161.36) rotate(-47.56)"/><circle class="cls-10" cx="333.95" cy="25.06" r="0.8"/><circle class="cls-10" cx="333.96" cy="27.34" r="0.8"/><circle class="cls-10" cx="331.77" cy="26.19" r="0.8"/><rect class="cls-10" x="977.51" y="871.95" width="1" height="3.54" rx="0.43" transform="matrix(0.83, -0.56, 0.56, 0.83, -949.41, -130.95)"/><rect class="cls-10" x="979.4" y="871.53" width="1" height="3.54" rx="0.43" transform="translate(-948.85 -129.96) rotate(-34.02)"/><rect class="cls-10" x="329.37" y="59.61" width="2.01" height="2.01"/><rect class="cls-10" x="332.45" y="59.61" width="2.01" height="2.01"/><rect class="cls-6" x="948.61" y="844.04" width="22.34" height="21.67" rx="1.78" transform="translate(-951.36 101.46) rotate(-45)"/><path class="cls-6" d="M974.08,855.9l-11.69,11.69-1.59,1.58a1.77,1.77,0,0,1-2.52,0l-.8-.8-12-12a1.77,1.77,0,0,1,0-2.52l13.27-13.28a1.79,1.79,0,0,1,2.52,0l12.81,12.81A1.79,1.79,0,0,1,974.08,855.9Z" transform="translate(-627.98 -827.59)"/><path class="cls-6" d="M972.66,852l-11.39-11.39a1.79,1.79,0,0,0-2.52,0L947.36,852a1.79,1.79,0,0,0,0,2.52l10.12,10.12V852.14H962v13l10.67-10.68A1.77,1.77,0,0,0,972.66,852Z" transform="translate(-627.98 -827.59)"/><path class="cls-6" d="M972.66,891.93l-11.39,11.39a1.77,1.77,0,0,1-2.52,0l-11.39-11.39a1.79,1.79,0,0,1,0-2.52l10.29-10.28,1.1-1.11a1.79,1.79,0,0,1,2.52,0l.88.87,10.51,10.52A1.77,1.77,0,0,1,972.66,891.93Z" transform="translate(-627.98 -827.59)"/><polygon class="cls-10" points="327.03 24.17 326.86 24.17 326.86 23.39 324.69 21.22 323.97 21.22 323.97 21.05 324.75 21.05 327.03 23.32 327.03 24.17"/><polygon class="cls-10" points="326.09 18.32 325.42 17.66 326.13 16.95 326.25 17.07 325.66 17.66 326.09 18.09 326.67 17.5 326.79 17.62 326.09 18.32"/><path class="cls-10" d="M957.48,849.72a.33.33,0,1,1,.33-.33A.33.33,0,0,1,957.48,849.72Zm0-.48a.15.15,0,0,0-.15.15.16.16,0,0,0,.15.16.16.16,0,0,0,.16-.16A.16.16,0,0,0,957.48,849.24Z" transform="translate(-627.98 -827.59)"/><path class="cls-10" d="M956.18,854.26l1.2,1.19-1.29,1.38.09-2.57m-.16-.39-.11,3.4,1.7-1.83L956,853.87Z" transform="translate(-627.98 -827.59)"/><polygon class="cls-10" points="347.8 42.41 346.24 40.75 346.36 39.44 346.52 39.45 346.42 40.69 347.86 42.23 349.09 42.02 349.12 42.19 347.8 42.41"/><path class="cls-10" d="M969.89,869.15l-.68-.68,1.37-1.37.68.67Zm-.45-.68.45.44,1.13-1.14-.44-.44Z" transform="translate(-627.98 -827.59)"/><path class="cls-10" d="M970.82,870.08l-.68-.68.93-.93.67.68Zm-.44-.68.44.44.69-.69-.44-.44Z" transform="translate(-627.98 -827.59)"/><polygon class="cls-10" points="329.55 37.08 329.45 36.95 330.17 36.41 330.17 34.07 329.44 33.27 329.56 33.16 330.33 34.01 330.33 36.49 329.55 37.08"/><path class="cls-10" d="M962,879.27v.54h-1.6v-.54H962m.17-.17h-1.94V880h1.94v-.88Z" transform="translate(-627.98 -827.59)"/><path class="cls-10" d="M962,880.54v.55h-1v-.55h1m.17-.17h-1.36v.88h1.36v-.88Z" transform="translate(-627.98 -827.59)"/><polygon class="cls-10" points="329.72 56.2 329.61 56.07 330.19 55.55 330.19 53.69 329.59 52.68 329.74 52.59 330.36 53.64 330.36 55.63 329.72 56.2"/><path class="cls-10" d="M958.4,879.8a.42.42,0,0,1-.42-.42.41.41,0,0,1,.42-.41.41.41,0,0,1,.41.41A.41.41,0,0,1,958.4,879.8Zm0-.67a.25.25,0,0,0-.25.25.25.25,0,0,0,.25.25.25.25,0,0,0,.25-.25A.26.26,0,0,0,958.4,879.13Z" transform="translate(-627.98 -827.59)"/><polygon class="cls-20" points="372.74 46.38 369.07 46.38 369.07 43.6 365.45 43.6 365.45 42.27 370.4 42.27 370.4 45.05 372.74 45.05 372.74 46.38"/><rect class="cls-20" x="378.56" y="45.05" width="4.9" height="1.33"/><rect class="cls-20" x="354.18" y="31.74" width="4.9" height="1.33"/><rect class="cls-20" x="357.72" y="58.7" width="3.89" height="1.33"/><polygon class="cls-20" points="358.9 65.4 355.13 65.4 355.13 62.92 351.9 62.92 351.9 61.59 356.46 61.59 356.46 64.07 358.9 64.07 358.9 65.4"/><polygon class="cls-20" points="365.71 59.36 364.38 59.36 364.38 55.52 372.31 55.52 372.31 56.85 365.71 56.85 365.71 59.36"/><rect class="cls-20" x="374.45" y="55.52" width="2.7" height="1.33"/><rect class="cls-20" x="366.18" y="49.24" width="4.08" height="1.33"/><rect class="cls-21" x="343.21" y="77.55" width="1.33" height="5.17"/><polygon class="cls-21" points="338.53 86.64 337.19 86.64 337.19 84.3 334.54 84.3 334.54 80.36 335.87 80.36 335.87 82.96 338.53 82.96 338.53 86.64"/><rect class="cls-21" x="339.06" y="78.08" width="1.33" height="3.38"/><polygon class="cls-21" points="347.25 73.64 342.69 73.64 342.69 72.3 345.91 72.3 345.91 69.74 350.55 69.74 350.55 71.07 347.25 71.07 347.25 73.64"/><rect class="cls-21" x="353.85" y="68.73" width="2.31" height="1.33"/><rect class="cls-21" x="348.84" y="65.87" width="2.31" height="1.33"/><rect class="cls-21" x="348.95" y="75.04" width="3.3" height="1.33"/><rect class="cls-21" x="323.53" y="82.73" width="1.33" height="3.8"/><rect class="cls-21" x="323.53" y="77.55" width="1.33" height="2.22"/><rect class="cls-21" x="330.37" y="81.52" width="1.33" height="5.55"/><polygon class="cls-21" points="320.13 72.63 316.31 72.63 316.31 70.07 314.89 70.07 314.89 68.73 317.64 68.73 317.64 71.3 320.13 71.3 320.13 72.63"/><rect class="cls-21" x="310.58" y="68.73" width="2" height="1.33"/><rect class="cls-21" x="318.85" y="78.08" width="1.33" height="3.16"/><polygon class="cls-22" points="309.8 60.91 304.7 60.91 304.7 58.67 303.25 58.67 303.25 57.34 306.04 57.34 306.04 59.58 309.8 59.58 309.8 60.91"/><rect class="cls-22" x="299.34" y="57.34" width="1.89" height="1.33"/><rect class="cls-22" x="298.44" y="52.12" width="4.82" height="1.33"/><polygon class="cls-22" points="291.07 50.58 286.69 50.58 286.69 49.24 289.74 49.24 289.74 46.54 295.31 46.54 295.31 47.88 291.07 47.88 291.07 50.58"/><rect class="cls-22" x="279.53" y="49.24" width="3.04" height="1.33"/><rect class="cls-22" x="290.1" y="54.7" width="5.86" height="1.33"/><rect class="cls-22" x="298.21" y="40.62" width="3.38" height="1.33"/><rect class="cls-22" x="291.36" y="40.62" width="2.7" height="1.33"/><polygon class="cls-22" points="311.71 32.24 308.71 32.24 308.71 29.91 304.93 29.91 304.93 28.58 310.05 28.58 310.05 30.9 311.71 30.9 311.71 32.24"/><rect class="cls-22" x="299.66" y="28.58" width="3.17" height="1.33"/><polygon class="cls-22" points="307.65 36.53 304.87 36.53 304.87 34.17 306.2 34.17 306.2 35.2 307.65 35.2 307.65 36.53"/><rect class="cls-22" x="298.21" y="35.66" width="3.04" height="1.33"/><polygon class="cls-20" points="363.67 39.11 360.74 39.11 360.74 37.77 362.33 37.77 362.33 35.11 366.06 35.11 366.06 36.45 363.67 36.45 363.67 39.11"/><rect class="cls-20" x="368.91" y="35.11" width="1.85" height="1.33"/><polygon class="cls-20" points="361.95 32.41 360.61 32.41 360.61 29.02 366.31 29.02 366.31 30.36 361.95 30.36 361.95 32.41"/><rect class="cls-21" x="315.96" y="74.71" width="4.96" height="1.33"/><polygon class="cls-21" points="314.71 78.22 310.99 78.22 310.99 76.89 313.38 76.89 313.38 75.37 314.71 75.37 314.71 78.22"/><rect class="cls-21" x="309.8" y="65.07" width="4.48" height="1.33"/><polygon class="cls-21" points="303.44 68.36 302.11 68.36 302.11 65.07 306.86 65.07 306.86 66.4 303.44 66.4 303.44 68.36"/><rect class="cls-19" x="345.91" y="22.64" width="3.2" height="1.33"/><polygon class="cls-19" points="353.85 23.31 352.52 23.31 352.52 19.88 357.79 19.88 357.79 21.21 353.85 21.21 353.85 23.31"/><rect class="cls-19" x="359.67" y="19.88" width="1.08" height="1.33"/><rect class="cls-19" x="348.56" y="26.62" width="4.35" height="1.33"/><rect class="cls-19" x="356.08" y="26.67" width="1.99" height="1.33"/><polygon class="cls-19" points="316.23 26.1 312.5 26.1 312.5 23.9 311.88 23.9 311.88 22.57 313.83 22.57 313.83 24.77 316.23 24.77 316.23 26.1"/><rect class="cls-19" x="307.83" y="22.51" width="2.77" height="1.33"/><rect class="cls-19" x="315.08" y="18.54" width="4.47" height="1.33"/><rect class="cls-19" x="308.33" y="18.54" width="3.77" height="1.33"/><rect class="cls-19" x="342.74" y="16.16" width="1.33" height="3.89"/><rect class="cls-19" x="342.74" y="8.89" width="1.33" height="4.56"/><polygon class="cls-19" points="337.54 14.98 336.21 14.98 336.21 11.19 338.19 11.19 338.19 9.51 339.53 9.51 339.53 12.52 337.54 12.52 337.54 14.98"/><rect class="cls-19" x="338.19" y="2.79" width="1.33" height="4.27"/><polygon class="cls-19" points="327.94 13.88 326.61 13.88 326.61 12.57 324.04 12.57 324.04 10.24 325.37 10.24 325.37 11.23 327.94 11.23 327.94 13.88"/><rect class="cls-19" x="324.04" y="4.45" width="1.33" height="3.25"/><rect class="cls-19" x="331.31" y="6.06" width="1.33" height="4.33"/><rect class="cls-19" x="331.31" y="0.46" width="1.33" height="3.24"/><polygon class="cls-19" points="322.05 16.37 320.72 16.37 320.72 13.75 317.83 13.75 317.83 10.74 319.17 10.74 319.17 12.42 322.05 12.42 322.05 16.37"/><polygon class="cls-19" points="348.86 19.21 347.53 19.21 347.53 16.1 351.57 16.1 351.57 17.44 348.86 17.44 348.86 19.21"/><rect class="cls-19" x="366.94" y="88.79" width="1.33" height="4.11"/><rect class="cls-19" x="366.82" y="83.5" width="1.33" height="1.97"/><rect class="cls-22" x="355.55" y="80.14" width="1.33" height="6.93"/><polygon class="cls-19" points="363.16 80.36 361.83 80.36 361.83 75.8 364.15 75.8 364.15 72.97 365.48 72.97 365.48 77.13 363.16 77.13 363.16 80.36"/><rect class="cls-20" x="311.85" y="92.78" width="1.33" height="5.8"/><polygon class="cls-21" points="296.12 92.86 294.79 92.86 294.79 89.48 292.95 89.48 292.95 85.26 294.29 85.26 294.29 88.15 296.12 88.15 296.12 92.86"/><rect class="cls-21" x="292.6" y="79.55" width="1.33" height="3.17"/><rect class="cls-19" x="316.84" y="86.19" width="1.33" height="4.35"/><rect class="cls-20" x="307.79" y="84.63" width="1.33" height="3.74"/><polygon class="cls-20" points="308.37 82.13 305.86 82.13 305.86 78.08 307.19 78.08 307.19 80.79 308.37 80.79 308.37 82.13"/><polygon class="cls-20" points="399.69 101.1 398.35 101.1 398.35 98.22 397.23 98.22 397.23 95.21 398.56 95.21 398.56 96.89 399.69 96.89 399.69 101.1"/><rect class="cls-20" x="397.23" y="89.52" width="1.33" height="3.72"/><rect class="cls-21" x="385.51" y="92.21" width="1.33" height="5.17"/><rect class="cls-21" x="385.51" y="85.47" width="1.33" height="2.89"/><rect class="cls-20" x="267.57" y="96.66" width="1.33" height="5.01"/><polygon class="cls-20" points="268.91 92.86 267.57 92.86 267.57 89.58 269.76 89.58 269.76 86.53 271.09 86.53 271.09 90.91 268.91 90.91 268.91 92.86"/><rect class="cls-20" x="269.76" y="81.23" width="1.33" height="2.76"/><rect class="cls-21" x="283.07" y="93.7" width="1.33" height="4.22"/><rect class="cls-22" x="364.86" y="105.25" width="1.33" height="4.14"/><polygon class="cls-20" points="328.95 111.92 327.61 111.92 327.61 106.96 325.37 106.96 325.37 102.88 326.7 102.88 326.7 105.63 328.95 105.63 328.95 111.92"/><rect class="cls-20" x="325.37" y="96.66" width="1.33" height="3.95"/><rect class="cls-26" x="296.37" y="108.34" width="1.33" height="3.09"/><rect class="cls-26" x="296.37" y="100.38" width="1.33" height="4.01"/><polygon class="cls-19" points="288.16 103.63 286.83 103.63 286.83 96.18 288.38 96.18 288.38 92.21 289.71 92.21 289.71 97.51 288.16 97.51 288.16 103.63"/><rect class="cls-21" x="275.63" y="97.91" width="1.33" height="4.04"/><polygon class="cls-27" points="267.36 26.56 275.23 18.31 267.26 12.26 267.36 26.56"/><rect class="cls-28" x="202.7" y="1" width="64.56" height="75.91" rx="5.19"/><rect class="cls-29" x="206.94" y="16.94" width="20.7" height="3.62" rx="1.81"/><rect class="cls-29" x="228.69" y="16.94" width="13.06" height="3.62" rx="1.81"/><rect class="cls-29" x="244.02" y="16.94" width="7.01" height="3.62" rx="1.81"/><rect class="cls-29" x="206.94" y="30.5" width="11.98" height="3.62" rx="1.81"/><rect class="cls-29" x="221.33" y="30.5" width="6.56" height="3.62" rx="1.81"/><rect class="cls-29" x="230.78" y="30.5" width="26.28" height="3.62" rx="1.81"/><rect class="cls-29" x="206.94" y="36.61" width="17.17" height="3.62" rx="1.81"/><rect class="cls-29" x="225.84" y="36.61" width="7.14" height="3.62" rx="1.81"/><rect class="cls-29" x="235.3" y="36.61" width="22.9" height="3.62" rx="1.81"/><rect class="cls-29" x="206.94" y="49.27" width="17.17" height="3.62" rx="1.81"/><rect class="cls-29" x="225.84" y="49.27" width="7.14" height="3.62" rx="1.81"/><rect class="cls-29" x="235.3" y="49.27" width="22.9" height="3.62" rx="1.81"/><rect class="cls-29" x="206.94" y="42.43" width="8.21" height="3.62" rx="1.81"/><rect class="cls-29" x="217.34" y="42.43" width="21.15" height="3.62" rx="1.81"/><rect class="cls-29" x="240.97" y="42.43" width="10.24" height="3.62" rx="1.81"/><rect class="cls-29" x="206.94" y="23.72" width="11.98" height="3.62" rx="1.81"/><rect class="cls-29" x="220.36" y="23.72" width="26.85" height="3.62" rx="1.81"/><rect class="cls-29" x="249.67" y="23.72" width="8.07" height="3.62" rx="1.81"/><rect class="cls-29" x="206.94" y="56.11" width="11.98" height="3.62" rx="1.81"/><rect class="cls-29" x="220.36" y="56.11" width="26.85" height="3.62" rx="1.81"/><rect class="cls-29" x="249.67" y="56.11" width="8.07" height="3.62" rx="1.81"/><rect class="cls-30" x="205.74" y="10.11" width="10.73" height="3.62" rx="1.81"/><rect class="cls-31" x="218.57" y="10.11" width="5.78" height="3.62" rx="1.81"/><rect class="cls-32" x="226.44" y="10.11" width="31.78" height="3.62" rx="1.81"/><rect class="cls-30" x="205.74" y="64.18" width="10.73" height="3.62" rx="1.81"/><rect class="cls-31" x="218.57" y="64.18" width="5.78" height="3.62" rx="1.81"/><rect class="cls-32" x="226.44" y="64.18" width="31.78" height="3.62" rx="1.81"/><circle class="cls-29" cx="198.54" cy="80.77" r="7.73"/><circle class="cls-29" cx="199.09" cy="79.16" r="6.03"/><ellipse class="cls-24" cx="834.45" cy="879.24" rx="1.88" ry="2.98" transform="translate(-910.35 522.92) rotate(-69.38)"/><rect class="cls-29" x="821.41" y="921.54" width="8.91" height="11.94" rx="3.58" transform="translate(-635.39 -820.94) rotate(-0.46)"/><rect class="cls-29" x="821.41" y="921.55" width="7.16" height="11.29" rx="3.58" transform="matrix(1, -0.01, 0.01, 1, -635.39, -820.95)"/><rect class="cls-5" x="800.28" y="899.49" width="31.31" height="31.31" rx="14.53" transform="translate(-724.49 -731.4) rotate(-6.37)"/><rect class="cls-29" x="811.62" y="925.55" width="8.91" height="11.94" rx="3.58" transform="translate(-635.42 -821.02) rotate(-0.46)"/><rect class="cls-5" x="811.61" y="925.56" width="7.16" height="11.29" rx="3.58" transform="translate(-635.42 -821.03) rotate(-0.46)"/><ellipse class="cls-24" cx="815.93" cy="888.84" rx="21.36" ry="23.07" transform="translate(-721.57 -731.56) rotate(-6.37)"/><circle class="cls-5" cx="187.76" cy="59.55" r="21.36"/><circle class="cls-7" cx="191.56" cy="58.88" r="17.75"/><circle class="cls-27" cx="174.95" cy="59.98" r="7.21"/><circle class="cls-5" cx="173.81" cy="58.88" r="5.51"/><ellipse class="cls-24" cx="822.32" cy="872.68" rx="2.61" ry="4.15" transform="translate(-802.09 712.11) rotate(-80.5)"/><path class="cls-29" d="M819.12,925.19l-9.76-9.3a3.66,3.66,0,0,1,.3-5.12l1-1.06c1.49-1.56,3.78-1.81,5.1-.54l9.76,9.3a3.65,3.65,0,0,1-.3,5.12l-1,1.06A3.66,3.66,0,0,1,819.12,925.19Z" transform="translate(-627.98 -827.59)"/><path class="cls-5" d="M819.34,922.91,811.09,915c-1.33-1.26-1.19-3.55.3-5.11h0c1.49-1.57,3.77-1.81,5.09-.54l8.25,7.86c1.33,1.26,1.19,3.55-.3,5.12h0C822.94,923.93,820.66,924.17,819.34,922.91Z" transform="translate(-627.98 -827.59)"/><circle class="cls-29" cx="185.94" cy="86.43" r="7.73"/><circle class="cls-5" cx="186.5" cy="84.82" r="6.03"/></svg>