<svg id="CSS" xmlns="http://www.w3.org/2000/svg" viewBox="0 0 158.5 114"><defs><style>.cls-1{opacity:0.5;}.cls-2{fill:#fff;}.cls-3{fill:#6f6;}.cls-4{fill:#f55a4a;}</style></defs><title>CSS</title><g class="cls-1"><path class="cls-2" d="M237.55,321H95.7a8.33,8.33,0,0,1-8.32-8.32V215.32A8.33,8.33,0,0,1,95.7,207H237.55a8.33,8.33,0,0,1,8.33,8.32v97.36A8.33,8.33,0,0,1,237.55,321ZM95.7,210a5.32,5.32,0,0,0-5.32,5.32v97.36A5.32,5.32,0,0,0,95.7,318H237.55a5.33,5.33,0,0,0,5.33-5.32V215.32a5.33,5.33,0,0,0-5.33-5.32Z" transform="translate(-87.38 -207)"/></g><rect class="cls-3" x="92.25" y="10" width="53" height="44" rx="6.82"/><path class="cls-2" d="M225.8,262.5H186.45a8.33,8.33,0,0,1-8.32-8.32V223.82a8.33,8.33,0,0,1,8.32-8.32H225.8a8.33,8.33,0,0,1,8.33,8.32v30.36A8.33,8.33,0,0,1,225.8,262.5Zm-39.35-44a5.32,5.32,0,0,0-5.32,5.32v30.36a5.32,5.32,0,0,0,5.32,5.32H225.8a5.33,5.33,0,0,0,5.33-5.32V223.82a5.33,5.33,0,0,0-5.33-5.32Z" transform="translate(-87.38 -207)"/><g class="cls-1"><path class="cls-2" d="M120.63,245.5h-13a1.5,1.5,0,0,1,0-3h13a1.5,1.5,0,0,1,0,3Z" transform="translate(-87.38 -207)"/><path class="cls-2" d="M132.63,245.5h-5a1.5,1.5,0,0,1,0-3h5a1.5,1.5,0,0,1,0,3Z" transform="translate(-87.38 -207)"/><path class="cls-2" d="M166.63,245.5h-25a1.5,1.5,0,0,1,0-3h25a1.5,1.5,0,0,1,0,3Z" transform="translate(-87.38 -207)"/><path class="cls-2" d="M166.63,257.5h-18a1.5,1.5,0,0,1,0-3h18a1.5,1.5,0,0,1,0,3Z" transform="translate(-87.38 -207)"/><path class="cls-2" d="M140.63,257.5h-37a1.5,1.5,0,0,1,0-3h37a1.5,1.5,0,0,1,0,3Z" transform="translate(-87.38 -207)"/><path class="cls-2" d="M146.63,223.5h-33a1.5,1.5,0,0,1,0-3h33a1.5,1.5,0,0,1,0,3Z" transform="translate(-87.38 -207)"/><path class="cls-2" d="M166.63,223.5h-13a1.5,1.5,0,0,1,0-3h13a1.5,1.5,0,0,1,0,3Z" transform="translate(-87.38 -207)"/><path class="cls-2" d="M133.63,233.5h-33a1.5,1.5,0,0,1,0-3h33a1.5,1.5,0,0,1,0,3Z" transform="translate(-87.38 -207)"/><path class="cls-2" d="M166.63,233.5h-23a1.5,1.5,0,0,1,0-3h23a1.5,1.5,0,0,1,0,3Z" transform="translate(-87.38 -207)"/></g><rect class="cls-4" x="13.25" y="60" width="53" height="44" rx="6.82"/><path class="cls-2" d="M146.8,312.5H107.45a8.33,8.33,0,0,1-8.32-8.32V273.82a8.33,8.33,0,0,1,8.32-8.32H146.8a8.33,8.33,0,0,1,8.33,8.32v30.36A8.33,8.33,0,0,1,146.8,312.5Zm-39.35-44a5.32,5.32,0,0,0-5.32,5.32v30.36a5.32,5.32,0,0,0,5.32,5.32H146.8a5.33,5.33,0,0,0,5.33-5.32V273.82a5.33,5.33,0,0,0-5.33-5.32Z" transform="translate(-87.38 -207)"/><g class="cls-1"><path class="cls-2" d="M225.63,295.5h-13a1.5,1.5,0,0,1,0-3h13a1.5,1.5,0,0,1,0,3Z" transform="translate(-87.38 -207)"/><path class="cls-2" d="M205.63,295.5h-5a1.5,1.5,0,0,1,0-3h5a1.5,1.5,0,0,1,0,3Z" transform="translate(-87.38 -207)"/><path class="cls-2" d="M191.63,295.5h-25a1.5,1.5,0,0,1,0-3h25a1.5,1.5,0,0,1,0,3Z" transform="translate(-87.38 -207)"/><path class="cls-2" d="M184.63,307.5h-18a1.5,1.5,0,0,1,0-3h18a1.5,1.5,0,0,1,0,3Z" transform="translate(-87.38 -207)"/><path class="cls-2" d="M229.63,307.5h-37a1.5,1.5,0,0,1,0-3h37a1.5,1.5,0,0,1,0,3Z" transform="translate(-87.38 -207)"/><path class="cls-2" d="M219.63,273.5h-33a1.5,1.5,0,0,1,0-3h33a1.5,1.5,0,0,1,0,3Z" transform="translate(-87.38 -207)"/><path class="cls-2" d="M179.63,273.5h-13a1.5,1.5,0,0,1,0-3h13a1.5,1.5,0,0,1,0,3Z" transform="translate(-87.38 -207)"/><path class="cls-2" d="M232.63,283.5h-33a1.5,1.5,0,0,1,0-3h33a1.5,1.5,0,0,1,0,3Z" transform="translate(-87.38 -207)"/><path class="cls-2" d="M189.63,283.5h-23a1.5,1.5,0,0,1,0-3h23a1.5,1.5,0,0,1,0,3Z" transform="translate(-87.38 -207)"/></g></svg>