<svg id="figma" xmlns="http://www.w3.org/2000/svg" viewBox="0 0 125.13 156"><defs><style>.cls-1{fill:#fff;}</style></defs><title>figma</title><path class="cls-1" d="M547,267.1H514.84V222H547ZM518,264h25.9V225.13H518Z" transform="translate(-514.63 -222)"/><path class="cls-1" d="M546.8,322.55H514.63v-45.1H546.8Zm-29-3.13h25.91V280.58H517.76Z" transform="translate(-514.63 -222)"/><path class="cls-1" d="M546.8,378H514.63V332.9H546.8Zm-29-3.13h25.91V336H517.76Z" transform="translate(-514.63 -222)"/><path class="cls-1" d="M593.37,267.1H561.2V222h32.17Zm-29-3.13h25.9V225.13h-25.9Z" transform="translate(-514.63 -222)"/><path class="cls-1" d="M639.26,267.1H607.1V222h32.16Zm-29-3.13h25.9V225.13h-25.9Z" transform="translate(-514.63 -222)"/><path class="cls-1" d="M639.76,322.55H607.6v-45.1h32.16Zm-29-3.13h25.9V280.58h-25.9Z" transform="translate(-514.63 -222)"/><rect class="cls-1" x="59.25" y="25.46" width="13.08" height="3.13"/><rect class="cls-1" x="52.98" y="31.9" width="19.34" height="3.13"/><path class="cls-1" d="M586.06,242.93h-8.8a2.48,2.48,0,0,1-2.47-2.47v-7.11a2.47,2.47,0,0,1,2.47-2.46h8.8a2.46,2.46,0,0,1,2.46,2.46v7.11A2.47,2.47,0,0,1,586.06,242.93Zm-8.13-3.14h7.46V234h-7.46Z" transform="translate(-514.63 -222)"/><path class="cls-1" d="M539,256.41H522.85V234H539Zm-13-3.14h9.88V237.09H526Z" transform="translate(-514.63 -222)"/><rect class="cls-1" x="13.88" y="19.55" width="4.81" height="3.13"/><rect class="cls-1" x="13.88" y="25.03" width="4.81" height="3.13"/><path class="cls-1" d="M537.08,294.16H521.15v-8h15.93ZM524.28,291H534v-1.71h-9.67Z" transform="translate(-514.63 -222)"/><rect class="cls-1" x="6.42" y="76.43" width="19.17" height="3.13"/><rect class="cls-1" x="6.42" y="82.31" width="16.12" height="3.13"/><rect class="cls-1" x="6.42" y="88.5" width="11.5" height="3.13"/><path class="cls-1" d="M541,364.83H520.43V353.88H541Zm-17.44-3.13h14.31V357H523.56Z" transform="translate(-514.63 -222)"/><rect class="cls-1" x="7.36" y="146.65" width="14.81" height="3.13"/><path class="cls-1" d="M541.27,350.07H530.75V339.55h10.52Zm-7.39-3.13h4.26v-4.26h-4.26Z" transform="translate(-514.63 -222)"/><path class="cls-1" d="M633.37,245.09H613V230.15h20.38ZM616.12,242h14.12v-8.66H616.12Z" transform="translate(-514.63 -222)"/><rect class="cls-1" x="103.78" y="14.05" width="9.55" height="3.13"/><rect class="cls-1" x="101.3" y="27.19" width="14.5" height="3.13"/><rect class="cls-1" x="103.29" y="32.53" width="10.52" height="3.13"/><path class="cls-1" d="M624.57,293.69h-11.4v-8.92h11.4Zm-8.27-3.13h5.14V287.9H616.3Z" transform="translate(-514.63 -222)"/><path class="cls-1" d="M634.19,307.82h-21V296.57h21Zm-17.89-3.13h14.76v-5H616.3Z" transform="translate(-514.63 -222)"/><rect class="cls-1" x="101.3" y="89.36" width="15.5" height="3.13"/></svg>