<svg id="git" xmlns="http://www.w3.org/2000/svg" viewBox="0 0 162.42 160"><defs><style>.cls-1{opacity:0.5;}.cls-2{fill:#fff;}.cls-3{fill:#6f6;}.cls-4{fill:#f55a4a;}</style></defs><title>git</title><g class="cls-1"><path class="cls-2" d="M540.4,454H481.16a3.48,3.48,0,0,1-3.48-3.48V409.87a3.48,3.48,0,0,1,3.48-3.48H540.4a3.48,3.48,0,0,1,3.48,3.48v40.65A3.48,3.48,0,0,1,540.4,454Zm-59.24-46.36a2.22,2.22,0,0,0-2.22,2.23v40.65a2.22,2.22,0,0,0,2.22,2.23H540.4a2.22,2.22,0,0,0,2.22-2.23V409.87a2.22,2.22,0,0,0-2.22-2.23Z" transform="translate(-423.69 -294)"/></g><g class="cls-1"><rect class="cls-3" x="92.52" y="116.57" width="22.13" height="18.38" rx="2.85"/><path class="cls-2" d="M535.49,429.57H519.06a3.48,3.48,0,0,1-3.48-3.48V413.42a3.48,3.48,0,0,1,3.48-3.48h16.43a3.48,3.48,0,0,1,3.48,3.48v12.67A3.48,3.48,0,0,1,535.49,429.57Zm-16.43-18.38a2.23,2.23,0,0,0-2.23,2.23v12.67a2.23,2.23,0,0,0,2.23,2.23h16.43a2.23,2.23,0,0,0,2.23-2.23V413.42a2.23,2.23,0,0,0-2.23-2.23Z" transform="translate(-423.69 -294)"/></g><g class="cls-1"><path class="cls-2" d="M491.57,422.47h-5.43a.63.63,0,1,1,0-1.25h5.43a.63.63,0,0,1,0,1.25Z" transform="translate(-423.69 -294)"/><path class="cls-2" d="M496.58,422.47h-2.09a.63.63,0,0,1,0-1.25h2.09a.63.63,0,1,1,0,1.25Z" transform="translate(-423.69 -294)"/><path class="cls-2" d="M510.78,422.47H500.34a.63.63,0,1,1,0-1.25h10.44a.63.63,0,1,1,0,1.25Z" transform="translate(-423.69 -294)"/><path class="cls-2" d="M510.78,427.48h-7.52a.63.63,0,0,1,0-1.25h7.52a.63.63,0,1,1,0,1.25Z" transform="translate(-423.69 -294)"/><path class="cls-2" d="M499.92,427.48H484.47a.63.63,0,1,1,0-1.25h15.45a.63.63,0,1,1,0,1.25Z" transform="translate(-423.69 -294)"/><path class="cls-2" d="M502.43,413.28H488.65a.63.63,0,1,1,0-1.25h13.78a.63.63,0,0,1,0,1.25Z" transform="translate(-423.69 -294)"/><path class="cls-2" d="M510.78,413.28h-5.43a.63.63,0,1,1,0-1.25h5.43a.63.63,0,1,1,0,1.25Z" transform="translate(-423.69 -294)"/><path class="cls-2" d="M497,417.46H483.22a.63.63,0,0,1-.63-.63.63.63,0,0,1,.63-.63H497a.63.63,0,0,1,.62.63A.63.63,0,0,1,497,417.46Z" transform="translate(-423.69 -294)"/><path class="cls-2" d="M510.78,417.46h-9.61a.63.63,0,0,1-.62-.63.63.63,0,0,1,.62-.63h9.61a.63.63,0,0,1,.63.63A.63.63,0,0,1,510.78,417.46Z" transform="translate(-423.69 -294)"/></g><g class="cls-1"><rect class="cls-4" x="59.53" y="137.45" width="22.13" height="18.38" rx="2.85"/><path class="cls-2" d="M502.5,450.45H486.07a3.48,3.48,0,0,1-3.48-3.48V434.3a3.48,3.48,0,0,1,3.48-3.48H502.5A3.48,3.48,0,0,1,506,434.3V447A3.48,3.48,0,0,1,502.5,450.45Zm-16.43-18.38a2.23,2.23,0,0,0-2.23,2.23V447a2.23,2.23,0,0,0,2.23,2.23H502.5a2.22,2.22,0,0,0,2.22-2.23V434.3a2.22,2.22,0,0,0-2.22-2.23Z" transform="translate(-423.69 -294)"/></g><g class="cls-1"><path class="cls-2" d="M535.42,443.35H530a.63.63,0,1,1,0-1.25h5.43a.63.63,0,1,1,0,1.25Z" transform="translate(-423.69 -294)"/><path class="cls-2" d="M527.07,443.35H525a.63.63,0,1,1,0-1.25h2.09a.63.63,0,0,1,0,1.25Z" transform="translate(-423.69 -294)"/><path class="cls-2" d="M521.22,443.35H510.78a.63.63,0,1,1,0-1.25h10.44a.63.63,0,1,1,0,1.25Z" transform="translate(-423.69 -294)"/><path class="cls-2" d="M518.3,448.36h-7.52a.63.63,0,1,1,0-1.25h7.52a.63.63,0,0,1,0,1.25Z" transform="translate(-423.69 -294)"/><path class="cls-2" d="M537.09,448.36H521.64a.63.63,0,1,1,0-1.25h15.45a.63.63,0,1,1,0,1.25Z" transform="translate(-423.69 -294)"/><path class="cls-2" d="M532.91,434.16H519.13a.63.63,0,0,1,0-1.25h13.78a.63.63,0,1,1,0,1.25Z" transform="translate(-423.69 -294)"/><path class="cls-2" d="M516.21,434.16h-5.43a.63.63,0,1,1,0-1.25h5.43a.63.63,0,0,1,0,1.25Z" transform="translate(-423.69 -294)"/><path class="cls-2" d="M538.34,438.34H524.56a.63.63,0,1,1,0-1.25h13.78a.63.63,0,1,1,0,1.25Z" transform="translate(-423.69 -294)"/><path class="cls-2" d="M520.38,438.34h-9.6a.63.63,0,1,1,0-1.25h9.6a.63.63,0,1,1,0,1.25Z" transform="translate(-423.69 -294)"/></g><g class="cls-1"><path class="cls-2" d="M486.41,371.83H427.17a3.48,3.48,0,0,1-3.48-3.48V327.7a3.48,3.48,0,0,1,3.48-3.48h59.24a3.48,3.48,0,0,1,3.47,3.48v40.65A3.48,3.48,0,0,1,486.41,371.83Zm-59.24-46.36a2.23,2.23,0,0,0-2.23,2.23v40.65a2.23,2.23,0,0,0,2.23,2.23h59.24a2.23,2.23,0,0,0,2.22-2.23V327.7a2.23,2.23,0,0,0-2.22-2.23Z" transform="translate(-423.69 -294)"/></g><g class="cls-1"><rect class="cls-4" x="5.53" y="55.28" width="22.13" height="18.38" rx="2.85"/><path class="cls-2" d="M448.51,368.28H432.07a3.48,3.48,0,0,1-3.47-3.48V352.13a3.48,3.48,0,0,1,3.47-3.48h16.44a3.47,3.47,0,0,1,3.47,3.48V364.8A3.47,3.47,0,0,1,448.51,368.28ZM432.07,349.9a2.23,2.23,0,0,0-2.22,2.23V364.8a2.23,2.23,0,0,0,2.22,2.23h16.44a2.23,2.23,0,0,0,2.22-2.23V352.13a2.23,2.23,0,0,0-2.22-2.23Z" transform="translate(-423.69 -294)"/></g><g class="cls-1"><path class="cls-2" d="M481.43,361.18H476a.63.63,0,1,1,0-1.25h5.43a.63.63,0,0,1,0,1.25Z" transform="translate(-423.69 -294)"/><path class="cls-2" d="M473.08,361.18H471a.63.63,0,1,1,0-1.25h2.09a.63.63,0,0,1,0,1.25Z" transform="translate(-423.69 -294)"/><path class="cls-2" d="M467.23,361.18H456.79a.63.63,0,1,1,0-1.25h10.44a.63.63,0,0,1,0,1.25Z" transform="translate(-423.69 -294)"/><path class="cls-2" d="M464.3,366.19h-7.51a.63.63,0,1,1,0-1.25h7.51a.63.63,0,1,1,0,1.25Z" transform="translate(-423.69 -294)"/><path class="cls-2" d="M483.1,366.19H467.65a.63.63,0,1,1,0-1.25H483.1a.63.63,0,0,1,0,1.25Z" transform="translate(-423.69 -294)"/><path class="cls-2" d="M478.92,352H465.14a.63.63,0,1,1,0-1.25h13.78a.63.63,0,1,1,0,1.25Z" transform="translate(-423.69 -294)"/><path class="cls-2" d="M462.22,352h-5.43a.63.63,0,1,1,0-1.25h5.43a.63.63,0,0,1,0,1.25Z" transform="translate(-423.69 -294)"/><path class="cls-2" d="M484.35,356.17H470.57a.63.63,0,0,1-.63-.63.63.63,0,0,1,.63-.63h13.78a.63.63,0,0,1,.63.63A.63.63,0,0,1,484.35,356.17Z" transform="translate(-423.69 -294)"/><path class="cls-2" d="M466.39,356.17h-9.6a.63.63,0,0,1-.63-.63.63.63,0,0,1,.63-.63h9.6a.63.63,0,0,1,.63.63A.63.63,0,0,1,466.39,356.17Z" transform="translate(-423.69 -294)"/></g><g class="cls-1"><path class="cls-2" d="M582.63,341.61H523.39a3.48,3.48,0,0,1-3.47-3.48V297.48a3.48,3.48,0,0,1,3.47-3.48h59.24a3.48,3.48,0,0,1,3.48,3.48v40.65A3.48,3.48,0,0,1,582.63,341.61Zm-59.24-46.36a2.23,2.23,0,0,0-2.22,2.23v40.65a2.23,2.23,0,0,0,2.22,2.23h59.24a2.23,2.23,0,0,0,2.23-2.23V297.48a2.23,2.23,0,0,0-2.23-2.23Z" transform="translate(-423.69 -294)"/></g><g class="cls-1"><rect class="cls-3" x="134.75" y="4.18" width="22.13" height="18.38" rx="2.85"/><path class="cls-2" d="M577.73,317.18H561.29a3.48,3.48,0,0,1-3.47-3.48V301a3.48,3.48,0,0,1,3.47-3.48h16.44A3.48,3.48,0,0,1,581.2,301V313.7A3.48,3.48,0,0,1,577.73,317.18ZM561.29,298.8a2.23,2.23,0,0,0-2.22,2.23V313.7a2.23,2.23,0,0,0,2.22,2.23h16.44A2.23,2.23,0,0,0,580,313.7V301a2.23,2.23,0,0,0-2.22-2.23Z" transform="translate(-423.69 -294)"/></g><g class="cls-1"><path class="cls-2" d="M533.8,310.08h-5.43a.63.63,0,0,1,0-1.25h5.43a.63.63,0,1,1,0,1.25Z" transform="translate(-423.69 -294)"/><path class="cls-2" d="M538.81,310.08h-2.08a.63.63,0,1,1,0-1.25h2.08a.63.63,0,1,1,0,1.25Z" transform="translate(-423.69 -294)"/><path class="cls-2" d="M553,310.08H542.57a.63.63,0,0,1,0-1.25H553a.63.63,0,1,1,0,1.25Z" transform="translate(-423.69 -294)"/><path class="cls-2" d="M553,315.09H545.5a.63.63,0,1,1,0-1.25H553a.63.63,0,1,1,0,1.25Z" transform="translate(-423.69 -294)"/><path class="cls-2" d="M542.15,315.09H526.7a.63.63,0,0,1,0-1.25h15.45a.63.63,0,1,1,0,1.25Z" transform="translate(-423.69 -294)"/><path class="cls-2" d="M544.66,300.89H530.88a.63.63,0,1,1,0-1.25h13.78a.63.63,0,1,1,0,1.25Z" transform="translate(-423.69 -294)"/><path class="cls-2" d="M553,300.89h-5.43a.63.63,0,0,1,0-1.25H553a.63.63,0,1,1,0,1.25Z" transform="translate(-423.69 -294)"/><path class="cls-2" d="M539.23,305.07H525.45a.63.63,0,0,1,0-1.26h13.78a.63.63,0,0,1,0,1.26Z" transform="translate(-423.69 -294)"/><path class="cls-2" d="M553,305.07h-9.6a.63.63,0,0,1,0-1.26H553a.63.63,0,0,1,0,1.26Z" transform="translate(-423.69 -294)"/></g><path class="cls-2" d="M511.39,403.43a1.5,1.5,0,0,1-1.5-1.5V376.2a1.5,1.5,0,1,1,3,0v25.73A1.5,1.5,0,0,1,511.39,403.43Z" transform="translate(-423.69 -294)"/><path class="cls-2" d="M511.39,395.06a1.48,1.48,0,0,1-1.06-.43l-11.21-11.14a1.54,1.54,0,0,1-.44-1.07V364.16a1.5,1.5,0,0,1,3,0V381.8l10.76,10.7a1.5,1.5,0,0,1-1.05,2.56Z" transform="translate(-423.69 -294)"/><path class="cls-2" d="M511.41,383.87a1.5,1.5,0,0,1-1-2.6l15.27-14V352.12a1.5,1.5,0,0,1,3,0v15.77a1.51,1.51,0,0,1-.48,1.11l-15.76,14.48A1.51,1.51,0,0,1,511.41,383.87Z" transform="translate(-423.69 -294)"/><circle class="cls-2" cx="103.47" cy="53.97" r="4.98"/><circle class="cls-2" cx="76.07" cy="67.25" r="4.98"/></svg>