<svg id="HTML" xmlns="http://www.w3.org/2000/svg" viewBox="0 0 158.5 114"><defs><style>.cls-1{fill:#fff;}</style></defs><title>html</title><path class="cls-1" d="M237.55,167H95.7a8.33,8.33,0,0,1-8.32-8.32V61.32A8.33,8.33,0,0,1,95.7,53H237.55a8.33,8.33,0,0,1,8.33,8.32v97.36A8.33,8.33,0,0,1,237.55,167ZM95.7,56a5.32,5.32,0,0,0-5.32,5.32v97.36A5.32,5.32,0,0,0,95.7,164H237.55a5.33,5.33,0,0,0,5.33-5.32V61.32A5.33,5.33,0,0,0,237.55,56Z" transform="translate(-87.38 -53)"/><path class="cls-1" d="M225.8,108.5H186.45a8.33,8.33,0,0,1-8.32-8.32V69.82a8.33,8.33,0,0,1,8.32-8.32H225.8a8.33,8.33,0,0,1,8.33,8.32v30.36A8.33,8.33,0,0,1,225.8,108.5Zm-39.35-44a5.32,5.32,0,0,0-5.32,5.32v30.36a5.32,5.32,0,0,0,5.32,5.32H225.8a5.33,5.33,0,0,0,5.33-5.32V69.82a5.33,5.33,0,0,0-5.33-5.32Z" transform="translate(-87.38 -53)"/><path class="cls-1" d="M120.63,91.5h-13a1.5,1.5,0,0,1,0-3h13a1.5,1.5,0,0,1,0,3Z" transform="translate(-87.38 -53)"/><path class="cls-1" d="M132.63,91.5h-5a1.5,1.5,0,0,1,0-3h5a1.5,1.5,0,0,1,0,3Z" transform="translate(-87.38 -53)"/><path class="cls-1" d="M166.63,91.5h-25a1.5,1.5,0,0,1,0-3h25a1.5,1.5,0,0,1,0,3Z" transform="translate(-87.38 -53)"/><path class="cls-1" d="M166.63,103.5h-18a1.5,1.5,0,0,1,0-3h18a1.5,1.5,0,0,1,0,3Z" transform="translate(-87.38 -53)"/><path class="cls-1" d="M140.63,103.5h-37a1.5,1.5,0,0,1,0-3h37a1.5,1.5,0,0,1,0,3Z" transform="translate(-87.38 -53)"/><path class="cls-1" d="M146.63,69.5h-33a1.5,1.5,0,0,1,0-3h33a1.5,1.5,0,0,1,0,3Z" transform="translate(-87.38 -53)"/><path class="cls-1" d="M166.63,69.5h-13a1.5,1.5,0,0,1,0-3h13a1.5,1.5,0,0,1,0,3Z" transform="translate(-87.38 -53)"/><path class="cls-1" d="M133.63,79.5h-33a1.5,1.5,0,0,1,0-3h33a1.5,1.5,0,0,1,0,3Z" transform="translate(-87.38 -53)"/><path class="cls-1" d="M166.63,79.5h-23a1.5,1.5,0,0,1,0-3h23a1.5,1.5,0,0,1,0,3Z" transform="translate(-87.38 -53)"/><path class="cls-1" d="M146.8,158.5H107.45a8.33,8.33,0,0,1-8.32-8.32V119.82a8.33,8.33,0,0,1,8.32-8.32H146.8a8.33,8.33,0,0,1,8.33,8.32v30.36A8.33,8.33,0,0,1,146.8,158.5Zm-39.35-44a5.32,5.32,0,0,0-5.32,5.32v30.36a5.32,5.32,0,0,0,5.32,5.32H146.8a5.33,5.33,0,0,0,5.33-5.32V119.82a5.33,5.33,0,0,0-5.33-5.32Z" transform="translate(-87.38 -53)"/><path class="cls-1" d="M225.63,141.5h-13a1.5,1.5,0,0,1,0-3h13a1.5,1.5,0,0,1,0,3Z" transform="translate(-87.38 -53)"/><path class="cls-1" d="M205.63,141.5h-5a1.5,1.5,0,0,1,0-3h5a1.5,1.5,0,0,1,0,3Z" transform="translate(-87.38 -53)"/><path class="cls-1" d="M191.63,141.5h-25a1.5,1.5,0,0,1,0-3h25a1.5,1.5,0,0,1,0,3Z" transform="translate(-87.38 -53)"/><path class="cls-1" d="M184.63,153.5h-18a1.5,1.5,0,0,1,0-3h18a1.5,1.5,0,0,1,0,3Z" transform="translate(-87.38 -53)"/><path class="cls-1" d="M229.63,153.5h-37a1.5,1.5,0,0,1,0-3h37a1.5,1.5,0,0,1,0,3Z" transform="translate(-87.38 -53)"/><path class="cls-1" d="M219.63,119.5h-33a1.5,1.5,0,0,1,0-3h33a1.5,1.5,0,0,1,0,3Z" transform="translate(-87.38 -53)"/><path class="cls-1" d="M179.63,119.5h-13a1.5,1.5,0,0,1,0-3h13a1.5,1.5,0,0,1,0,3Z" transform="translate(-87.38 -53)"/><path class="cls-1" d="M232.63,129.5h-33a1.5,1.5,0,0,1,0-3h33a1.5,1.5,0,0,1,0,3Z" transform="translate(-87.38 -53)"/><path class="cls-1" d="M189.63,129.5h-23a1.5,1.5,0,0,1,0-3h23a1.5,1.5,0,0,1,0,3Z" transform="translate(-87.38 -53)"/></svg>