<svg id="JS" xmlns="http://www.w3.org/2000/svg" viewBox="0 0 211.5 156"><defs><style>.cls-1{fill:#ff6;}.cls-2{fill:#333;}.cls-3{fill:#fff;}.cls-4{opacity:0.5;}.cls-5{fill:#f55a4a;}.cls-6{fill:#6f6;}.cls-7{fill:none;}</style></defs><title>js</title><path class="cls-1" d="M145.91,344.89a6.38,6.38,0,1,1-6.53,6.24A6.38,6.38,0,0,1,145.91,344.89Zm-.26,11a4.66,4.66,0,1,0-4.55-4.76A4.65,4.65,0,0,0,145.65,355.93Z" transform="translate(-80.21 -324)"/><path class="cls-1" d="M145.91,344.89a6.38,6.38,0,1,1-6.53,6.24A6.38,6.38,0,0,1,145.91,344.89Zm-.26,11a4.66,4.66,0,1,0-4.55-4.76A4.65,4.65,0,0,0,145.65,355.93Z" transform="translate(-80.21 -324)"/><path class="cls-1" d="M143.66,329.75l5.81.14a2.26,2.26,0,0,1,2.21,2.3l-.11,4.73a15.44,15.44,0,0,1,4.77,3.06l4-2.19a2.28,2.28,0,0,1,1.72-.19,2.24,2.24,0,0,1,1.34,1.09l2.79,5.09a2.26,2.26,0,0,1-.88,3.06l-4.21,2.3a14.81,14.81,0,0,1,.15,2.48,15.79,15.79,0,0,1-.4,3.14l3.93,2.38a2.27,2.27,0,0,1,.76,3.1l-3,5a2.26,2.26,0,0,1-3.09.75l-4.12-2.5a15.41,15.41,0,0,1-5,2.6l-.1,4.6a2.25,2.25,0,0,1-2.3,2.2l-5.82-.13a2.25,2.25,0,0,1-2.2-2.3l.11-4.78a15.91,15.91,0,0,1-4.77-3l-4,2.18a2.25,2.25,0,0,1-3.06-.9l-2.79-5.09a2.28,2.28,0,0,1,.89-3.06l4.15-2.27a15.83,15.83,0,0,1-.16-2.58,16.24,16.24,0,0,1,.39-3.11l-3.85-2.33a2.27,2.27,0,0,1-.76-3.1l3-5a2.31,2.31,0,0,1,1.4-1,2.21,2.21,0,0,1,1.7.27l4,2.44a15.4,15.4,0,0,1,5.06-2.64l.1-4.5A2.26,2.26,0,0,1,143.66,329.75ZM156,342.11l-.46-.47a13.79,13.79,0,0,0-5.17-3.32l-.59-.2.14-6a.53.53,0,0,0-.52-.54l-5.82-.14a.54.54,0,0,0-.54.53l-.13,5.79-.64.16a13.72,13.72,0,0,0-5.48,2.85l-.47.41-5.07-3.08a.54.54,0,0,0-.74.18l-3,5a.55.55,0,0,0,.18.74l5,3-.17.63a13.51,13.51,0,0,0-.25,6.17l.11.61-5.23,2.86a.55.55,0,0,0-.21.73l2.79,5.09a.53.53,0,0,0,.72.22l5.13-2.8.45.45a13.81,13.81,0,0,0,5.18,3.28l.59.2-.14,6a.53.53,0,0,0,.52.54l5.81.13a.53.53,0,0,0,.55-.52l.13-5.88.63-.16a13.94,13.94,0,0,0,5.4-2.82l.47-.4,5.16,3.13a.58.58,0,0,0,.41.06.51.51,0,0,0,.32-.24l3-5a.55.55,0,0,0-.18-.74l-5-3.05.17-.62a13.59,13.59,0,0,0,.28-6.12l-.1-.6,5.26-2.88a.54.54,0,0,0,.22-.73l-2.8-5.09a.53.53,0,0,0-.31-.26.53.53,0,0,0-.41,0Zm-10.13,2.78a6.38,6.38,0,1,1-6.53,6.24A6.38,6.38,0,0,1,145.91,344.89Zm-.26,11a4.66,4.66,0,1,0-4.55-4.76A4.65,4.65,0,0,0,145.65,355.93Z" transform="translate(-80.21 -324)"/><path class="cls-1" d="M122.24,372.24a4.86,4.86,0,1,1-4.34,5.34A4.87,4.87,0,0,1,122.24,372.24Zm.87,8.37a3.55,3.55,0,1,0-3.9-3.16A3.54,3.54,0,0,0,123.11,380.61Z" transform="translate(-80.21 -324)"/><path class="cls-1" d="M122.24,372.24a4.86,4.86,0,1,1-4.34,5.34A4.87,4.87,0,0,1,122.24,372.24Zm.87,8.37a3.55,3.55,0,1,0-3.9-3.16A3.54,3.54,0,0,0,123.11,380.61Z" transform="translate(-80.21 -324)"/><path class="cls-1" d="M119.09,361l4.41-.46a1.71,1.71,0,0,1,1.88,1.53l.38,3.59a11.86,11.86,0,0,1,3.9,1.85l2.81-2a1.71,1.71,0,0,1,2.4.38l2.6,3.58a1.72,1.72,0,0,1-.38,2.4l-3,2.14a12.26,12.26,0,0,1,.34,1.87,11.42,11.42,0,0,1,0,2.41l3.19,1.42a1.72,1.72,0,0,1,.87,2.27l-1.8,4.05a1.74,1.74,0,0,1-2.27.87l-3.35-1.5a11.87,11.87,0,0,1-3.51,2.45l.37,3.48a1.73,1.73,0,0,1-1.54,1.89l-4.4.46a1.72,1.72,0,0,1-1.89-1.53l-.38-3.62a12,12,0,0,1-3.89-1.83l-2.82,2a1.69,1.69,0,0,1-1.27.31,1.71,1.71,0,0,1-1.13-.69l-2.6-3.58a1.74,1.74,0,0,1,.38-2.41l2.92-2.11a12.54,12.54,0,0,1-.37-1.94,11.93,11.93,0,0,1,0-2.39l-3.14-1.4a1.73,1.73,0,0,1-.87-2.27l1.81-4a1.65,1.65,0,0,1,1-.9,1.68,1.68,0,0,1,1.32,0l3.27,1.46a11.63,11.63,0,0,1,3.57-2.48l-.35-3.42A1.71,1.71,0,0,1,119.09,361Zm10.54,8.15-.39-.31a10.35,10.35,0,0,0-4.23-2l-.46-.1-.47-4.53a.41.41,0,0,0-.45-.36l-4.41.46a.41.41,0,0,0-.36.45l.46,4.39-.46.18A10.44,10.44,0,0,0,115,370l-.32.35-4.14-1.84a.37.37,0,0,0-.31,0,.38.38,0,0,0-.22.21l-1.81,4a.41.41,0,0,0,.2.54l4,1.8-.07.49a9.94,9.94,0,0,0,0,2.56,9.53,9.53,0,0,0,.45,2.12l.14.46-3.68,2.66a.42.42,0,0,0-.09.58l2.6,3.58a.38.38,0,0,0,.27.16.36.36,0,0,0,.3-.07l3.61-2.61.38.3a10.47,10.47,0,0,0,4.23,2l.47.1.47,4.56a.42.42,0,0,0,.45.37l4.41-.46a.42.42,0,0,0,.36-.45l-.46-4.46.46-.19a10.45,10.45,0,0,0,3.81-2.65l.31-.34,4.21,1.87a.42.42,0,0,0,.31,0,.45.45,0,0,0,.23-.22l1.81-4a.41.41,0,0,0-.21-.54l-4.09-1.82.07-.49a10.45,10.45,0,0,0-.38-4.65l-.14-.45,3.71-2.69a.41.41,0,0,0,.09-.57l-2.6-3.58a.44.44,0,0,0-.27-.17.42.42,0,0,0-.3.08Zm-7.39,3.08a4.86,4.86,0,1,1-4.34,5.34A4.87,4.87,0,0,1,122.24,372.24Zm.87,8.37a3.55,3.55,0,1,0-3.9-3.16A3.54,3.54,0,0,0,123.11,380.61Z" transform="translate(-80.21 -324)"/><path class="cls-1" d="M117,343a2.53,2.53,0,1,1-2.07,2.91A2.52,2.52,0,0,1,117,343Zm.72,4.31a1.84,1.84,0,1,0-2.12-1.51A1.84,1.84,0,0,0,117.76,347.26Z" transform="translate(-80.21 -324)"/><path class="cls-1" d="M117,343a2.53,2.53,0,1,1-2.07,2.91A2.52,2.52,0,0,1,117,343Zm.72,4.31a1.84,1.84,0,1,0-2.12-1.51A1.84,1.84,0,0,0,117.76,347.26Z" transform="translate(-80.21 -324)"/><path class="cls-1" d="M115,337.25l2.27-.39a.89.89,0,0,1,1,.73l.31,1.85a6,6,0,0,1,2.08.83l1.39-1.14a.86.86,0,0,1,.65-.21.93.93,0,0,1,.61.33l1.46,1.76a.9.9,0,0,1-.12,1.26l-1.46,1.2a5.62,5.62,0,0,1,.24,1,5.75,5.75,0,0,1,.08,1.24l1.7.64a.89.89,0,0,1,.53,1.14L125,349.6a.84.84,0,0,1-.46.5.89.89,0,0,1-.68,0l-1.79-.67a5.77,5.77,0,0,1-1.73,1.38l.3,1.8a.88.88,0,0,1-.73,1l-2.26.38a.89.89,0,0,1-1-.73l-.31-1.86a6.11,6.11,0,0,1-2.08-.82l-1.39,1.15a.89.89,0,0,1-.65.2.86.86,0,0,1-.6-.32l-1.46-1.77a.9.9,0,0,1,.11-1.25l1.45-1.19a6.87,6.87,0,0,1-.26-1,6.46,6.46,0,0,1-.08-1.24l-1.67-.62a.89.89,0,0,1-.52-1.15l.8-2.15a.92.92,0,0,1,.47-.5.94.94,0,0,1,.68,0l1.74.65a6,6,0,0,1,1.77-1.4l-.3-1.76A.89.89,0,0,1,115,337.25Zm5.72,3.87-.21-.15a5.31,5.31,0,0,0-2.25-.9l-.25,0-.39-2.32a.22.22,0,0,0-.24-.18l-2.27.39a.21.21,0,0,0-.17.24l.38,2.26-.23.11a5.44,5.44,0,0,0-1.92,1.51l-.15.19-2.2-.81a.22.22,0,0,0-.16,0,.25.25,0,0,0-.11.12l-.8,2.15a.21.21,0,0,0,.12.27l2.15.8,0,.26a5.84,5.84,0,0,0,.06,1.32,5.68,5.68,0,0,0,.31,1.09l.09.23-1.82,1.5a.22.22,0,0,0,0,.3l1.46,1.77a.28.28,0,0,0,.15.08.27.27,0,0,0,.15-.05l1.78-1.47.21.14a5.54,5.54,0,0,0,2.25.89l.25,0,.39,2.34a.22.22,0,0,0,.25.17l2.26-.38a.2.2,0,0,0,.17-.24l-.38-2.29.23-.12a5.34,5.34,0,0,0,1.88-1.49l.16-.19,2.23.83a.2.2,0,0,0,.17,0,.2.2,0,0,0,.11-.11l.8-2.15a.23.23,0,0,0-.12-.28l-2.18-.81,0-.25a6,6,0,0,0-.06-1.34,5.75,5.75,0,0,0-.29-1.06l-.09-.22,1.84-1.51a.22.22,0,0,0,0-.3l-1.46-1.77a.23.23,0,0,0-.14-.08.2.2,0,0,0-.15,0ZM117,343a2.53,2.53,0,1,1-2.07,2.91A2.52,2.52,0,0,1,117,343Zm.72,4.31a1.84,1.84,0,1,0-2.12-1.51A1.84,1.84,0,0,0,117.76,347.26Z" transform="translate(-80.21 -324)"/><path class="cls-2" d="M290.2,374.32v97.36a6.82,6.82,0,0,1-6.82,6.82H141.53a6.81,6.81,0,0,1-6.41-4.5l1.32-.76a5.4,5.4,0,0,1-.23-1.56h0l-1.45.84a5.69,5.69,0,0,1-.06-.83v-.83l1.51-.87,9.07-5.24H134.7v-4.89h14.59v-3.91H134.7v-1.47h1.51V453H134.7V374.32a5.25,5.25,0,0,1,0-.56,5,5,0,0,1,.18-1.09,6.81,6.81,0,0,1,6.62-5.17H283.38A6.82,6.82,0,0,1,290.2,374.32Z" transform="translate(-80.21 -324)"/><path class="cls-3" d="M133.21,454.47v1.47h3v-1.47ZM283.38,366H141.53a8.3,8.3,0,0,0-8.32,8.32V453h3V374.32a5.32,5.32,0,0,1,5.32-5.32H283.38a5.33,5.33,0,0,1,5.33,5.32v97.36a5.33,5.33,0,0,1-5.33,5.32H141.53a5.33,5.33,0,0,1-5.09-3.76l-2.64,1.52a8.33,8.33,0,0,0,7.73,5.24H283.38a8.33,8.33,0,0,0,8.33-8.32V374.32A8.33,8.33,0,0,0,283.38,366ZM136.21,471.67V470l-1.51.87-1.49.86a8.43,8.43,0,0,0,.16,1.6l1.39-.8Zm-3-11.82v4.89h3v-4.89Z" transform="translate(-80.21 -324)"/><path class="cls-1" d="M190.89,405h-7.08a1.5,1.5,0,1,1,0-3h7.08a1.5,1.5,0,0,1,0,3Z" transform="translate(-80.21 -324)"/><path class="cls-1" d="M239,405H203.63a1.5,1.5,0,0,1,0-3H239a1.5,1.5,0,0,1,0,3Z" transform="translate(-80.21 -324)"/><path class="cls-1" d="M258.83,417H233.35a1.5,1.5,0,0,1,0-3h25.48a1.5,1.5,0,0,1,0,3Z" transform="translate(-80.21 -324)"/><path class="cls-1" d="M222,417H169.65a1.5,1.5,0,1,1,0-3H222a1.5,1.5,0,0,1,0,3Z" transform="translate(-80.21 -324)"/><path class="cls-1" d="M165.41,429h-7.08a1.5,1.5,0,0,1,0-3h7.08a1.5,1.5,0,0,1,0,3Z" transform="translate(-80.21 -324)"/><path class="cls-1" d="M205,382H158.33a1.5,1.5,0,0,1,0-3H205a1.5,1.5,0,0,1,0,3Z" transform="translate(-80.21 -324)"/><path class="cls-1" d="M233.35,382H215a1.5,1.5,0,0,1,0-3h18.4a1.5,1.5,0,1,1,0,3Z" transform="translate(-80.21 -324)"/><path class="cls-1" d="M212.12,393H165.41a1.5,1.5,0,1,1,0-3h46.71a1.5,1.5,0,0,1,0,3Z" transform="translate(-80.21 -324)"/><path class="cls-1" d="M258.83,393H226.27a1.5,1.5,0,1,1,0-3h32.56a1.5,1.5,0,0,1,0,3Z" transform="translate(-80.21 -324)"/><path class="cls-1" d="M180.2,460h-4.76a1.5,1.5,0,0,1,0-3h4.76a1.5,1.5,0,1,1,0,3Z" transform="translate(-80.21 -324)"/><path class="cls-1" d="M212.52,460H188.75a1.5,1.5,0,0,1,0-3h23.77a1.5,1.5,0,0,1,0,3Z" transform="translate(-80.21 -324)"/><path class="cls-1" d="M225.83,472H208.72a1.5,1.5,0,0,1,0-3h17.11a1.5,1.5,0,1,1,0,3Z" transform="translate(-80.21 -324)"/><path class="cls-1" d="M201.11,472H165.94a1.5,1.5,0,0,1,0-3h35.17a1.5,1.5,0,0,1,0,3Z" transform="translate(-80.21 -324)"/><path class="cls-1" d="M189.7,437H158.33a1.5,1.5,0,0,1,0-3H189.7a1.5,1.5,0,1,1,0,3Z" transform="translate(-80.21 -324)"/><path class="cls-1" d="M208.72,437H196.36a1.5,1.5,0,0,1,0-3h12.36a1.5,1.5,0,1,1,0,3Z" transform="translate(-80.21 -324)"/><path class="cls-1" d="M194.46,448H163.08a1.5,1.5,0,0,1,0-3h31.38a1.5,1.5,0,1,1,0,3Z" transform="translate(-80.21 -324)"/><path class="cls-1" d="M225.83,448H204a1.5,1.5,0,0,1,0-3h21.87a1.5,1.5,0,1,1,0,3Z" transform="translate(-80.21 -324)"/><g class="cls-4"><rect class="cls-5" x="13.24" y="60" width="53" height="44" rx="6.82"/><path class="cls-3" d="M139.63,382.5H100.28A8.33,8.33,0,0,0,92,390.82v30.36a8.33,8.33,0,0,0,8.33,8.32h39.35a8.33,8.33,0,0,0,8.32-8.32V390.82A8.33,8.33,0,0,0,139.63,382.5ZM145,421.18a5.32,5.32,0,0,1-5.32,5.32H100.28A5.33,5.33,0,0,1,95,421.18V390.82a5.33,5.33,0,0,1,5.33-5.32h39.35a5.32,5.32,0,0,1,5.32,5.32Z" transform="translate(-80.21 -324)"/></g><g class="cls-4"><path class="cls-3" d="M230.38,324H88.53a8.33,8.33,0,0,0-8.32,8.32v97.36A8.33,8.33,0,0,0,88.53,438H230.38a8.33,8.33,0,0,0,8.33-8.32V332.32A8.33,8.33,0,0,0,230.38,324Zm5.33,105.68a5.33,5.33,0,0,1-5.33,5.32H88.53a5.32,5.32,0,0,1-5.32-5.32V332.32A5.32,5.32,0,0,1,88.53,327H230.38a5.33,5.33,0,0,1,5.33,5.32Z" transform="translate(-80.21 -324)"/></g><g class="cls-4"><rect class="cls-6" x="92.24" y="10" width="53" height="44" rx="6.82"/><path class="cls-3" d="M218.63,332.5H179.28a8.33,8.33,0,0,0-8.33,8.32v30.36a8.34,8.34,0,0,0,5.47,7.82,8.47,8.47,0,0,0,2.86.5h39.35a8.43,8.43,0,0,0,2.86-.5,8.34,8.34,0,0,0,5.46-7.82V340.82A8.33,8.33,0,0,0,218.63,332.5ZM224,371.18a5.32,5.32,0,0,1-5.32,5.32H179.28a5.33,5.33,0,0,1-5.33-5.32V340.82a5.33,5.33,0,0,1,5.33-5.32h39.35a5.32,5.32,0,0,1,5.32,5.32Z" transform="translate(-80.21 -324)"/></g><g class="cls-4"><path class="cls-3" d="M113.46,362.5h-13a1.5,1.5,0,1,1,0-3h13a1.5,1.5,0,0,1,0,3Z" transform="translate(-80.21 -324)"/><path class="cls-3" d="M125.46,362.5h-5a1.5,1.5,0,1,1,0-3h5a1.5,1.5,0,0,1,0,3Z" transform="translate(-80.21 -324)"/><path class="cls-3" d="M159.46,362.5h-25a1.5,1.5,0,0,1,0-3h25a1.5,1.5,0,1,1,0,3Z" transform="translate(-80.21 -324)"/><path class="cls-3" d="M159.46,374.5h-18a1.5,1.5,0,0,1,0-3h18a1.5,1.5,0,1,1,0,3Z" transform="translate(-80.21 -324)"/><path class="cls-3" d="M133.46,374.5h-37a1.5,1.5,0,1,1,0-3h37a1.5,1.5,0,1,1,0,3Z" transform="translate(-80.21 -324)"/><path class="cls-3" d="M139.46,340.5h-33a1.5,1.5,0,1,1,0-3h33a1.5,1.5,0,1,1,0,3Z" transform="translate(-80.21 -324)"/><path class="cls-3" d="M159.46,340.5h-13a1.5,1.5,0,0,1,0-3h13a1.5,1.5,0,1,1,0,3Z" transform="translate(-80.21 -324)"/><path class="cls-3" d="M126.46,350.5h-33a1.5,1.5,0,1,1,0-3h33a1.5,1.5,0,0,1,0,3Z" transform="translate(-80.21 -324)"/><path class="cls-3" d="M159.46,350.5h-23a1.5,1.5,0,0,1,0-3h23a1.5,1.5,0,1,1,0,3Z" transform="translate(-80.21 -324)"/></g><g class="cls-4"><path class="cls-3" d="M218.46,412.5h-13a1.5,1.5,0,0,1,0-3h13a1.5,1.5,0,1,1,0,3Z" transform="translate(-80.21 -324)"/><path class="cls-3" d="M198.46,412.5h-5a1.5,1.5,0,0,1,0-3h5a1.5,1.5,0,1,1,0,3Z" transform="translate(-80.21 -324)"/><path class="cls-3" d="M184.46,412.5h-25a1.5,1.5,0,0,1,0-3h25a1.5,1.5,0,1,1,0,3Z" transform="translate(-80.21 -324)"/><path class="cls-3" d="M177.46,424.5h-18a1.5,1.5,0,0,1,0-3h18a1.5,1.5,0,1,1,0,3Z" transform="translate(-80.21 -324)"/><path class="cls-3" d="M222.46,424.5h-37a1.5,1.5,0,0,1,0-3h37a1.5,1.5,0,1,1,0,3Z" transform="translate(-80.21 -324)"/><path class="cls-3" d="M212.46,390.5h-33a1.5,1.5,0,0,1,0-3h33a1.5,1.5,0,1,1,0,3Z" transform="translate(-80.21 -324)"/><path class="cls-3" d="M172.46,390.5h-13a1.5,1.5,0,0,1,0-3h13a1.5,1.5,0,1,1,0,3Z" transform="translate(-80.21 -324)"/><path class="cls-3" d="M225.46,400.5h-33a1.5,1.5,0,0,1,0-3h33a1.5,1.5,0,1,1,0,3Z" transform="translate(-80.21 -324)"/><path class="cls-3" d="M182.46,400.5h-23a1.5,1.5,0,0,1,0-3h23a1.5,1.5,0,1,1,0,3Z" transform="translate(-80.21 -324)"/></g><path class="cls-1" d="M103.86,459.54H86.07a2.23,2.23,0,0,0-2.23,2.23v2.68a2.23,2.23,0,0,0,2.23,2.23h17.79a2.23,2.23,0,0,0,2.23-2.23v-2.68A2.23,2.23,0,0,0,103.86,459.54Zm.23,4.91a.23.23,0,0,1-.23.23H86.07a.23.23,0,0,1-.23-.23v-2.68a.23.23,0,0,1,.23-.23h17.79a.23.23,0,0,1,.23.23Z" transform="translate(-80.21 -324)"/><path class="cls-1" d="M103.86,450.35H86.07a2.23,2.23,0,0,0-2.23,2.23v2.69a2.23,2.23,0,0,0,2.23,2.23h17.79a2.23,2.23,0,0,0,2.23-2.23v-2.69A2.23,2.23,0,0,0,103.86,450.35Zm.23,4.92a.23.23,0,0,1-.23.23H86.07a.23.23,0,0,1-.23-.23v-2.69a.23.23,0,0,1,.23-.23h17.79a.23.23,0,0,1,.23.23Z" transform="translate(-80.21 -324)"/><path class="cls-1" d="M103.86,469.09H86.07a2.23,2.23,0,0,0-2.23,2.23V474a2.23,2.23,0,0,0,2.23,2.23h17.79a2.23,2.23,0,0,0,2.23-2.23v-2.68A2.23,2.23,0,0,0,103.86,469.09Zm.23,4.91a.23.23,0,0,1-.23.23H86.07a.23.23,0,0,1-.23-.23v-2.68a.23.23,0,0,1,.23-.23h17.79a.23.23,0,0,1,.23.23Z" transform="translate(-80.21 -324)"/><path class="cls-3" d="M110.13,463.27v6.84h21v4.48l2.22-1.28,1.39-.8,1.45-.84L147.74,465l3-1.74ZM136.21,470l-1.51.87-1.49.86-.59.34v-3.4h-21v-3.91h33.68Z" transform="translate(-80.21 -324)"/><path class="cls-3" d="M129.73,454.47V450l-19.6,11.32h40.62v-6.85Zm19.56,5.38H115.61l12.66-7.31v3.4h21Z" transform="translate(-80.21 -324)"/><line class="cls-7" x1="16.92" y1="140" x2="17.92" y2="140"/></svg>