<svg id="JS" xmlns="http://www.w3.org/2000/svg" viewBox="0 0 275.87 129"><defs><style>.cls-1{fill:#ff6;}.cls-2{fill:#333;}.cls-3{fill:#fff;}.cls-4{opacity:0.5;}.cls-5{fill:#f55a4a;}.cls-6{fill:#6f6;}.cls-7{fill:#0091c2;}</style></defs><title>JS</title><path class="cls-1" d="M244.71,467.23a6.38,6.38,0,1,1,7.74-4.65A6.38,6.38,0,0,1,244.71,467.23Zm2.67-10.71a4.66,4.66,0,1,0,3.4,5.65A4.66,4.66,0,0,0,247.38,456.52Z" transform="translate(-26.01 -360.5)"/><path class="cls-1" d="M244.71,467.23a6.38,6.38,0,1,1,7.74-4.65A6.38,6.38,0,0,1,244.71,467.23Zm2.67-10.71a4.66,4.66,0,1,0,3.4,5.65A4.66,4.66,0,0,0,247.38,456.52Z" transform="translate(-26.01 -360.5)"/><path class="cls-1" d="M243.58,482.5l-5.64-1.41a2.25,2.25,0,0,1-1.65-2.73l1.15-4.6a15.41,15.41,0,0,1-4-4L229.08,471a2.22,2.22,0,0,1-1.71-.19,2.26,2.26,0,0,1-1.08-1.36l-1.6-5.58a2.27,2.27,0,0,1,1.54-2.79l4.6-1.32a15.47,15.47,0,0,1,.41-2.45,15.05,15.05,0,0,1,1.07-3L229,451.14a2.27,2.27,0,0,1-.06-3.19l4-4.18a2.24,2.24,0,0,1,1.58-.68,2.19,2.19,0,0,1,1.61.63l3.46,3.34a15.59,15.59,0,0,1,5.41-1.45l1.12-4.46a2.25,2.25,0,0,1,2.73-1.65l5.64,1.41a2.26,2.26,0,0,1,1.64,2.73L255,448.28a15.72,15.72,0,0,1,4,4l4.38-1.25a2.23,2.23,0,0,1,2.78,1.55l1.61,5.58a2.27,2.27,0,0,1-1.54,2.79l-4.55,1.3a14.57,14.57,0,0,1-.41,2.55,15.44,15.44,0,0,1-1.06,3l3.24,3.13a2.26,2.26,0,0,1,.06,3.19l-4,4.18a2.24,2.24,0,0,1-1.58.68,2.18,2.18,0,0,1-1.6-.63L252.91,475a15.53,15.53,0,0,1-5.51,1.46l-1.09,4.37A2.26,2.26,0,0,1,243.58,482.5Zm-9.36-14.77.34.55a13.56,13.56,0,0,0,4.32,4.37l.53.34L238,478.78a.54.54,0,0,0,.39.64l5.64,1.41a.54.54,0,0,0,.65-.39l1.4-5.63h.65a13.76,13.76,0,0,0,6-1.58l.55-.3,4.27,4.13a.54.54,0,0,0,.38.15.6.6,0,0,0,.38-.17l4-4.17a.54.54,0,0,0,0-.76l-4.17-4,.31-.58a13.6,13.6,0,0,0,1.2-3.13,14.3,14.3,0,0,0,.4-2.83l0-.62,5.73-1.64a.56.56,0,0,0,.37-.67L264.52,453a.54.54,0,0,0-.25-.32.52.52,0,0,0-.4,0l-5.62,1.61-.34-.55a13.87,13.87,0,0,0-4.33-4.33l-.53-.33,1.45-5.84a.53.53,0,0,0-.39-.64l-5.64-1.41a.54.54,0,0,0-.64.39l-1.43,5.71-.64,0a13.72,13.72,0,0,0-5.89,1.57l-.55.29L235,445a.52.52,0,0,0-.38-.15.58.58,0,0,0-.37.17l-4,4.17a.54.54,0,0,0,0,.76l4.23,4.08-.31.57a14.05,14.05,0,0,0-1.61,5.91l0,.61-5.77,1.65a.56.56,0,0,0-.37.67L228,469a.47.47,0,0,0,.25.32.51.51,0,0,0,.4,0Zm10.49-.5a6.38,6.38,0,1,1,7.74-4.65A6.38,6.38,0,0,1,244.71,467.23Zm2.67-10.71a4.66,4.66,0,1,0,3.4,5.65A4.66,4.66,0,0,0,247.38,456.52Z" transform="translate(-26.01 -360.5)"/><path class="cls-2" d="M239.37,368.82v97.36a6.82,6.82,0,0,1-6.82,6.82H90.7a6.83,6.83,0,0,1-6.83-6.82v-5.49l1.51-.87v-1.7l-1.51.88v-1.69l1.51-.87v-1.2H83.87v-4.89h7.59v-3.91H83.87V445h1.51V443.5H83.87V368.82A6.83,6.83,0,0,1,90.7,362H232.55A6.82,6.82,0,0,1,239.37,368.82Z" transform="translate(-26.01 -360.5)"/><path class="cls-3" d="M232.55,360.5H90.7a8.33,8.33,0,0,0-8.32,8.32V443.5h3V368.82a5.32,5.32,0,0,1,5.32-5.32H232.55a5.33,5.33,0,0,1,5.33,5.32v97.36a5.33,5.33,0,0,1-5.33,5.32H90.7a5.32,5.32,0,0,1-5.32-5.32v-6.36l-1.51.87-1.49.87v4.62a8.33,8.33,0,0,0,8.32,8.32H232.55a8.33,8.33,0,0,0,8.33-8.32V368.82A8.33,8.33,0,0,0,232.55,360.5ZM82.38,450.35v4.89h3v-4.89Zm0,7.82v1.69l1.49-.86,1.51-.88v-1.68l-1.51.87Zm0-13.2v1.47h3V445Z" transform="translate(-26.01 -360.5)"/><path class="cls-1" d="M140.06,399.5H133a1.5,1.5,0,0,1,0-3h7.08a1.5,1.5,0,0,1,0,3Z" transform="translate(-26.01 -360.5)"/><path class="cls-1" d="M188.18,399.5H152.8a1.5,1.5,0,1,1,0-3h35.38a1.5,1.5,0,1,1,0,3Z" transform="translate(-26.01 -360.5)"/><path class="cls-1" d="M208,411.5H182.52a1.5,1.5,0,1,1,0-3H208a1.5,1.5,0,0,1,0,3Z" transform="translate(-26.01 -360.5)"/><path class="cls-1" d="M171.2,411.5H118.82a1.5,1.5,0,1,1,0-3H171.2a1.5,1.5,0,1,1,0,3Z" transform="translate(-26.01 -360.5)"/><path class="cls-1" d="M114.58,423.5H107.5a1.5,1.5,0,0,1,0-3h7.08a1.5,1.5,0,1,1,0,3Z" transform="translate(-26.01 -360.5)"/><path class="cls-1" d="M154.21,376.5H107.5a1.5,1.5,0,0,1,0-3h46.71a1.5,1.5,0,1,1,0,3Z" transform="translate(-26.01 -360.5)"/><path class="cls-1" d="M182.52,376.5h-18.4a1.5,1.5,0,0,1,0-3h18.4a1.5,1.5,0,0,1,0,3Z" transform="translate(-26.01 -360.5)"/><path class="cls-1" d="M161.29,387.5H114.58a1.5,1.5,0,1,1,0-3h46.71a1.5,1.5,0,0,1,0,3Z" transform="translate(-26.01 -360.5)"/><path class="cls-1" d="M208,387.5H175.44a1.5,1.5,0,0,1,0-3H208a1.5,1.5,0,0,1,0,3Z" transform="translate(-26.01 -360.5)"/><path class="cls-1" d="M129.37,454.5h-4.76a1.5,1.5,0,0,1,0-3h4.76a1.5,1.5,0,0,1,0,3Z" transform="translate(-26.01 -360.5)"/><path class="cls-1" d="M161.69,454.5H137.92a1.5,1.5,0,1,1,0-3h23.77a1.5,1.5,0,1,1,0,3Z" transform="translate(-26.01 -360.5)"/><path class="cls-1" d="M175,466.5H157.89a1.5,1.5,0,0,1,0-3H175a1.5,1.5,0,0,1,0,3Z" transform="translate(-26.01 -360.5)"/><path class="cls-1" d="M150.28,466.5H115.11a1.5,1.5,0,0,1,0-3h35.17a1.5,1.5,0,0,1,0,3Z" transform="translate(-26.01 -360.5)"/><path class="cls-1" d="M138.87,431.5H107.5a1.5,1.5,0,0,1,0-3h31.37a1.5,1.5,0,0,1,0,3Z" transform="translate(-26.01 -360.5)"/><path class="cls-1" d="M157.89,431.5H145.53a1.5,1.5,0,1,1,0-3h12.36a1.5,1.5,0,0,1,0,3Z" transform="translate(-26.01 -360.5)"/><path class="cls-1" d="M143.63,442.5H112.25a1.5,1.5,0,0,1,0-3h31.38a1.5,1.5,0,0,1,0,3Z" transform="translate(-26.01 -360.5)"/><path class="cls-1" d="M175,442.5H153.13a1.5,1.5,0,0,1,0-3H175a1.5,1.5,0,0,1,0,3Z" transform="translate(-26.01 -360.5)"/><g class="cls-4"><rect class="cls-5" x="130.62" y="75" width="53" height="44" rx="6.82"/><path class="cls-3" d="M202.8,481H163.45a8.33,8.33,0,0,1-8.32-8.32V442.32a8.33,8.33,0,0,1,8.32-8.32H202.8a8.33,8.33,0,0,1,8.33,8.32v30.36A8.33,8.33,0,0,1,202.8,481Zm-39.35-44a5.32,5.32,0,0,0-5.32,5.32v30.36a5.32,5.32,0,0,0,5.32,5.32H202.8a5.33,5.33,0,0,0,5.33-5.32V442.32A5.33,5.33,0,0,0,202.8,437Z" transform="translate(-26.01 -360.5)"/></g><g class="cls-4"><path class="cls-3" d="M293.55,489.5H151.7a8.33,8.33,0,0,1-8.32-8.32V383.82a8.33,8.33,0,0,1,8.32-8.32H293.55a8.33,8.33,0,0,1,8.33,8.32v97.36A8.33,8.33,0,0,1,293.55,489.5ZM151.7,378.5a5.32,5.32,0,0,0-5.32,5.32v97.36a5.32,5.32,0,0,0,5.32,5.32H293.55a5.33,5.33,0,0,0,5.33-5.32V383.82a5.33,5.33,0,0,0-5.33-5.32Z" transform="translate(-26.01 -360.5)"/></g><g class="cls-4"><rect class="cls-6" x="209.62" y="25" width="53" height="44" rx="6.82"/><path class="cls-3" d="M281.8,431H242.45a8.33,8.33,0,0,1-8.32-8.32V392.32a8.33,8.33,0,0,1,8.32-8.32H281.8a8.33,8.33,0,0,1,8.33,8.32v30.36A8.33,8.33,0,0,1,281.8,431Zm-39.35-44a5.32,5.32,0,0,0-5.32,5.32v30.36a5.32,5.32,0,0,0,5.32,5.32H281.8a5.33,5.33,0,0,0,5.33-5.32V392.32A5.33,5.33,0,0,0,281.8,387Z" transform="translate(-26.01 -360.5)"/></g><g class="cls-4"><path class="cls-3" d="M176.63,414h-13a1.5,1.5,0,0,1,0-3h13a1.5,1.5,0,0,1,0,3Z" transform="translate(-26.01 -360.5)"/><path class="cls-3" d="M188.63,414h-5a1.5,1.5,0,0,1,0-3h5a1.5,1.5,0,0,1,0,3Z" transform="translate(-26.01 -360.5)"/><path class="cls-3" d="M222.63,414h-25a1.5,1.5,0,0,1,0-3h25a1.5,1.5,0,0,1,0,3Z" transform="translate(-26.01 -360.5)"/><path class="cls-3" d="M222.63,426h-18a1.5,1.5,0,0,1,0-3h18a1.5,1.5,0,0,1,0,3Z" transform="translate(-26.01 -360.5)"/><path class="cls-3" d="M196.63,426h-37a1.5,1.5,0,0,1,0-3h37a1.5,1.5,0,0,1,0,3Z" transform="translate(-26.01 -360.5)"/><path class="cls-3" d="M202.63,392h-33a1.5,1.5,0,0,1,0-3h33a1.5,1.5,0,0,1,0,3Z" transform="translate(-26.01 -360.5)"/><path class="cls-3" d="M222.63,392h-13a1.5,1.5,0,0,1,0-3h13a1.5,1.5,0,0,1,0,3Z" transform="translate(-26.01 -360.5)"/><path class="cls-3" d="M189.63,402h-33a1.5,1.5,0,0,1,0-3h33a1.5,1.5,0,0,1,0,3Z" transform="translate(-26.01 -360.5)"/><path class="cls-3" d="M222.63,402h-23a1.5,1.5,0,0,1,0-3h23a1.5,1.5,0,0,1,0,3Z" transform="translate(-26.01 -360.5)"/></g><g class="cls-4"><path class="cls-3" d="M281.63,464h-13a1.5,1.5,0,0,1,0-3h13a1.5,1.5,0,0,1,0,3Z" transform="translate(-26.01 -360.5)"/><path class="cls-3" d="M261.63,464h-5a1.5,1.5,0,0,1,0-3h5a1.5,1.5,0,0,1,0,3Z" transform="translate(-26.01 -360.5)"/><path class="cls-3" d="M247.63,464h-25a1.5,1.5,0,0,1,0-3h25a1.5,1.5,0,0,1,0,3Z" transform="translate(-26.01 -360.5)"/><path class="cls-3" d="M240.63,476h-18a1.5,1.5,0,0,1,0-3h18a1.5,1.5,0,0,1,0,3Z" transform="translate(-26.01 -360.5)"/><path class="cls-3" d="M285.63,476h-37a1.5,1.5,0,0,1,0-3h37a1.5,1.5,0,0,1,0,3Z" transform="translate(-26.01 -360.5)"/><path class="cls-3" d="M275.63,442h-33a1.5,1.5,0,0,1,0-3h33a1.5,1.5,0,0,1,0,3Z" transform="translate(-26.01 -360.5)"/><path class="cls-3" d="M235.63,442h-13a1.5,1.5,0,0,1,0-3h13a1.5,1.5,0,0,1,0,3Z" transform="translate(-26.01 -360.5)"/><path class="cls-3" d="M288.63,452h-33a1.5,1.5,0,0,1,0-3h33a1.5,1.5,0,0,1,0,3Z" transform="translate(-26.01 -360.5)"/><path class="cls-3" d="M245.63,452h-23a1.5,1.5,0,0,1,0-3h23a1.5,1.5,0,0,1,0,3Z" transform="translate(-26.01 -360.5)"/></g><path class="cls-1" d="M273.81,445.75a4.86,4.86,0,1,1,5.4-4.26A4.87,4.87,0,0,1,273.81,445.75Zm1-8.35a3.55,3.55,0,1,0,3.11,3.94A3.55,3.55,0,0,0,274.8,437.4Z" transform="translate(-26.01 -360.5)"/><path class="cls-1" d="M273.81,445.75a4.86,4.86,0,1,1,5.4-4.26A4.87,4.87,0,0,1,273.81,445.75Zm1-8.35a3.55,3.55,0,1,0,3.11,3.94A3.55,3.55,0,0,0,274.8,437.4Z" transform="translate(-26.01 -360.5)"/><path class="cls-1" d="M274.42,457.41l-4.41-.53a1.71,1.71,0,0,1-1.5-1.9l.42-3.59a11.69,11.69,0,0,1-3.4-2.66l-3.19,1.37a1.7,1.7,0,0,1-2.25-.91l-1.75-4.06a1.72,1.72,0,0,1,.89-2.26l3.36-1.44a11.67,11.67,0,0,1,.6-4.25l-2.81-2.09a1.72,1.72,0,0,1-.35-2.41l2.65-3.55a1.77,1.77,0,0,1,1.13-.67,1.72,1.72,0,0,1,1.28.33L268,431a11.93,11.93,0,0,1,4-1.61l.41-3.49a1.72,1.72,0,0,1,1.91-1.5l4.4.52a1.73,1.73,0,0,1,1.51,1.91l-.43,3.62a11.86,11.86,0,0,1,3.4,2.63l3.19-1.37a1.71,1.71,0,0,1,2.26.9l1.75,4.07a1.73,1.73,0,0,1-.9,2.26l-3.31,1.42a11.84,11.84,0,0,1-.07,2,11.4,11.4,0,0,1-.52,2.33l2.76,2.05a1.73,1.73,0,0,1,.35,2.41L286,452.65a1.73,1.73,0,0,1-1.13.67,1.72,1.72,0,0,1-1.28-.32l-2.87-2.15a11.9,11.9,0,0,1-4,1.64l-.41,3.41A1.72,1.72,0,0,1,274.42,457.41Zm-8.5-10.27.31.38a10.39,10.39,0,0,0,3.69,2.89l.43.2-.54,4.52a.41.41,0,0,0,.36.45l4.4.52a.4.4,0,0,0,.45-.35l.52-4.39.49-.08a10.32,10.32,0,0,0,4.37-1.77l.39-.27,3.63,2.71a.39.39,0,0,0,.3.07.37.37,0,0,0,.26-.16l2.66-3.54a.43.43,0,0,0-.09-.58L284,445.1l.18-.46a10.43,10.43,0,0,0,.61-2.49,9.84,9.84,0,0,0,0-2.17l0-.48,4.17-1.79a.42.42,0,0,0,.22-.54l-1.76-4.06a.37.37,0,0,0-.22-.22.42.42,0,0,0-.31,0l-4.09,1.76-.31-.38a10.49,10.49,0,0,0-3.69-2.86l-.43-.2.54-4.56a.42.42,0,0,0-.36-.45l-4.4-.52a.39.39,0,0,0-.45.36l-.53,4.45-.49.08a10.5,10.5,0,0,0-4.3,1.75l-.39.27-3.69-2.75a.39.39,0,0,0-.3-.08.42.42,0,0,0-.27.16l-2.65,3.55a.41.41,0,0,0,.08.57l3.6,2.68-.18.46a10.36,10.36,0,0,0-.62,2.51,10.61,10.61,0,0,0,0,2.11l0,.47-4.2,1.8a.41.41,0,0,0-.22.54l1.75,4.07a.45.45,0,0,0,.23.22.35.35,0,0,0,.3,0Zm7.89-1.39a4.86,4.86,0,1,1,5.4-4.26A4.87,4.87,0,0,1,273.81,445.75Zm1-8.35a3.55,3.55,0,1,0,3.11,3.94A3.55,3.55,0,0,0,274.8,437.4Z" transform="translate(-26.01 -360.5)"/><path class="cls-1" d="M272.45,475.47a2.52,2.52,0,1,1,2.66-2.38A2.53,2.53,0,0,1,272.45,475.47Zm.24-4.36a1.84,1.84,0,1,0,1.74,1.94A1.85,1.85,0,0,0,272.69,471.11Z" transform="translate(-26.01 -360.5)"/><path class="cls-1" d="M272.45,475.47a2.52,2.52,0,1,1,2.66-2.38A2.53,2.53,0,0,1,272.45,475.47Zm.24-4.36a1.84,1.84,0,1,0,1.74,1.94A1.85,1.85,0,0,0,272.69,471.11Z" transform="translate(-26.01 -360.5)"/><path class="cls-1" d="M273.14,481.47l-2.29-.12a.89.89,0,0,1-.84-.94l.1-1.87a6.09,6.09,0,0,1-1.84-1.26l-1.61.81a.89.89,0,0,1-.68.05.86.86,0,0,1-.52-.45l-1-2a.88.88,0,0,1,.39-1.2l1.68-.85a6.55,6.55,0,0,1,0-1,6.42,6.42,0,0,1,.19-1.23l-1.52-1a.91.91,0,0,1-.26-1.24l1.26-1.92a.9.9,0,0,1,1.23-.26l1.6,1a6,6,0,0,1,2-1l.1-1.82a.9.9,0,0,1,.94-.84l2.29.13a.89.89,0,0,1,.84.94l-.1,1.88a6.24,6.24,0,0,1,1.84,1.25l1.61-.81a.85.85,0,0,1,.68,0,.87.87,0,0,1,.52.44l1,2.05a.9.9,0,0,1-.39,1.2l-1.67.84a5.8,5.8,0,0,1,0,1,7.16,7.16,0,0,1-.19,1.23l1.49,1a.9.9,0,0,1,.26,1.23L279,478.63a.9.9,0,0,1-.56.39.89.89,0,0,1-.67-.13l-1.56-1a6.16,6.16,0,0,1-2,1l-.1,1.77A.88.88,0,0,1,273.14,481.47Zm-4.73-5,.18.19a5.3,5.3,0,0,0,2,1.37l.23.09-.13,2.36a.21.21,0,0,0,.2.22l2.29.13a.21.21,0,0,0,.22-.2l.13-2.29.25-.06a5.34,5.34,0,0,0,2.2-1.05l.19-.16,2,1.28a.16.16,0,0,0,.16,0,.2.2,0,0,0,.13-.09l1.26-1.92a.22.22,0,0,0-.06-.29l-1.92-1.25.08-.25a5.72,5.72,0,0,0,.23-1.3,5.32,5.32,0,0,0-.06-1.13l0-.24,2.1-1.07a.21.21,0,0,0,.09-.28l-1-2a.22.22,0,0,0-.12-.11.29.29,0,0,0-.16,0l-2.06,1.05-.17-.19a5.47,5.47,0,0,0-2-1.36l-.23-.09.13-2.37a.2.2,0,0,0-.2-.22l-2.29-.13a.2.2,0,0,0-.22.2l-.13,2.32-.25.06a5.59,5.59,0,0,0-2.17,1l-.19.16-2-1.31a.22.22,0,0,0-.16,0,.24.24,0,0,0-.13.09l-1.26,1.93a.21.21,0,0,0,.07.29l1.94,1.27-.07.24a5,5,0,0,0-.24,1.32,5.69,5.69,0,0,0,0,1.09l0,.24-2.12,1.08a.21.21,0,0,0-.09.28l1,2.05a.19.19,0,0,0,.12.1.18.18,0,0,0,.16,0Zm4-1a2.52,2.52,0,1,1,2.66-2.38A2.53,2.53,0,0,1,272.45,475.47Zm.24-4.36a1.84,1.84,0,1,0,1.74,1.94A1.85,1.85,0,0,0,272.69,471.11Z" transform="translate(-26.01 -360.5)"/><path class="cls-1" d="M46,457.18H28.24A2.23,2.23,0,0,1,26,455v-2.68A2.23,2.23,0,0,1,28.24,450H46a2.23,2.23,0,0,1,2.23,2.23V455A2.23,2.23,0,0,1,46,457.18ZM28.24,452a.23.23,0,0,0-.23.23V455a.23.23,0,0,0,.23.23H46a.23.23,0,0,0,.23-.23v-2.68A.23.23,0,0,0,46,452Z" transform="translate(-26.01 -360.5)"/><path class="cls-1" d="M46,448H28.24A2.23,2.23,0,0,1,26,445.77v-2.69a2.24,2.24,0,0,1,2.23-2.23H46a2.24,2.24,0,0,1,2.23,2.23v2.69A2.23,2.23,0,0,1,46,448Zm-17.79-5.15a.23.23,0,0,0-.23.23v2.69a.23.23,0,0,0,.23.23H46a.23.23,0,0,0,.23-.23v-2.69a.23.23,0,0,0-.23-.23Z" transform="translate(-26.01 -360.5)"/><path class="cls-1" d="M46,466.73H28.24A2.23,2.23,0,0,1,26,464.5v-2.68a2.23,2.23,0,0,1,2.23-2.23H46a2.23,2.23,0,0,1,2.23,2.23v2.68A2.23,2.23,0,0,1,46,466.73Zm-17.79-5.14a.23.23,0,0,0-.23.23v2.68a.23.23,0,0,0,.23.23H46a.23.23,0,0,0,.23-.23v-2.68a.23.23,0,0,0-.23-.23Z" transform="translate(-26.01 -360.5)"/><path class="cls-3" d="M52.3,453.77v6.84h21v4.48l.24-.14,8.82-5.09,1.49-.86,1.51-.88,6.36-3.67,1.18-.68Zm33.08,2.67-1.51.87-1.49.86-7.59,4.38v-3.4h-21v-3.91H87.45Z" transform="translate(-26.01 -360.5)"/><path class="cls-3" d="M71.9,445V440.5L52.3,451.82H92.92V445Zm19.56,5.38H57.78L70.44,443v3.4h21Z" transform="translate(-26.01 -360.5)"/><line class="cls-7" x1="13.29" y1="94" x2="14.3" y2="94"/></svg>