<svg id="Laravel" xmlns="http://www.w3.org/2000/svg" viewBox="0 0 153.03 156"><defs><style>.cls-1{fill:#f1a9a6;}</style></defs><title>laravel</title><path class="cls-1" d="M600.42,378H590.15a27.69,27.69,0,0,1-27.55-25.31,56.29,56.29,0,0,1-17.32-10.51L523.9,354.51l-5.13-8.88A27.69,27.69,0,0,1,527.08,309a55.93,55.93,0,0,1,.42-20.07L506,276.52l4.93-8.54a28.1,28.1,0,0,1,36.15-11.41,56.38,56.38,0,0,1,17.52-9.72V222h10.26a27.68,27.68,0,0,1,27.56,25.47,56.81,56.81,0,0,1,17.29,10.36l21.4-12.34,5.13,8.88a27.66,27.66,0,0,1-8.12,36.5,56.33,56.33,0,0,1-.33,20.36L659,323.48l-5.13,8.89a27.65,27.65,0,0,1-35.59,11.25,56.66,56.66,0,0,1-17.87,9.87ZM546.3,333.7l1.85,1.81A49.17,49.17,0,0,0,567,347l2.35.78v2.47a20.86,20.86,0,0,0,20.81,20.92h3.43V348.37l2.5-.7A49.59,49.59,0,0,0,615.54,337l1.85-1.65,2.14,1.24A20.81,20.81,0,0,0,648,329l1.71-3L629.93,314.6l.63-2.51a49.24,49.24,0,0,0,.4-22.15l-.51-2.43,2.15-1.24a20.86,20.86,0,0,0,7.7-28.48l-1.71-3-19.88,11.47-1.85-1.78A49.53,49.53,0,0,0,598,253.18l-2.36-.77v-2.76a20.83,20.83,0,0,0-20.81-20.81h-3.43V252l-2.48.71a49.43,49.43,0,0,0-19.13,10.55L548,264.85l-2.14-1.23a21.25,21.25,0,0,0-29,7.77L515.32,274l20,11.54-.63,2.5a49.56,49.56,0,0,0-1.49,12.07,50.32,50.32,0,0,0,1,9.88l.48,2.4-2.37,1.37a20.85,20.85,0,0,0-7.62,28.44l1.71,3Zm36.29-10.2a23.38,23.38,0,0,1-23-27.29,23.37,23.37,0,1,1,27,27h0A24.56,24.56,0,0,1,582.59,323.5Zm0-39.89a17.85,17.85,0,0,0-2.81.23,16.53,16.53,0,0,0,5.64,32.58h0a16.53,16.53,0,0,0-2.83-32.81Z" transform="translate(-505.98 -222)"/></svg>