<svg id="php" xmlns="http://www.w3.org/2000/svg" viewBox="0 0 211.5 156"><defs><style>.cls-1{fill:#333;}.cls-2{fill:#fff;}.cls-3{fill:#c642ff;}.cls-4{opacity:0.5;}.cls-5{fill:#f55a4a;}.cls-6{fill:#6f6;}.cls-7{fill:#ffd499;}.cls-8{fill:none;}</style></defs><title>php</title><path class="cls-1" d="M620.37,111.32v97.36a6.82,6.82,0,0,1-6.82,6.82H471.7a6.81,6.81,0,0,1-6.41-4.5l1.32-.76a5.4,5.4,0,0,1-.23-1.56h0l-1.45.84a5.69,5.69,0,0,1-.06-.83v-.83l1.51-.87,9.07-5.24H464.87v-4.89h14.59v-3.91H464.87v-1.47h1.51V190h-1.51V111.32a5.25,5.25,0,0,1,0-.56,5,5,0,0,1,.18-1.09,6.81,6.81,0,0,1,6.62-5.17H613.55A6.82,6.82,0,0,1,620.37,111.32Z" transform="translate(-410.38 -61)"/><path class="cls-2" d="M463.38,191.47v1.47h3v-1.47ZM613.55,103H471.7a8.3,8.3,0,0,0-8.32,8.32V190h3V111.32A5.32,5.32,0,0,1,471.7,106H613.55a5.33,5.33,0,0,1,5.33,5.32v97.36a5.33,5.33,0,0,1-5.33,5.32H471.7a5.33,5.33,0,0,1-5.09-3.76L464,211.76A8.33,8.33,0,0,0,471.7,217H613.55a8.33,8.33,0,0,0,8.33-8.32V111.32A8.33,8.33,0,0,0,613.55,103ZM466.38,208.67V207l-1.51.87-1.49.86a8.43,8.43,0,0,0,.16,1.6l1.39-.8Zm-3-11.82v4.89h3v-4.89Z" transform="translate(-410.38 -61)"/><path class="cls-3" d="M521.06,142H514a1.5,1.5,0,0,1,0-3h7.08a1.5,1.5,0,0,1,0,3Z" transform="translate(-410.38 -61)"/><path class="cls-3" d="M569.18,142H533.8a1.5,1.5,0,0,1,0-3h35.38a1.5,1.5,0,0,1,0,3Z" transform="translate(-410.38 -61)"/><path class="cls-3" d="M589,154H563.52a1.5,1.5,0,0,1,0-3H589a1.5,1.5,0,0,1,0,3Z" transform="translate(-410.38 -61)"/><path class="cls-3" d="M552.2,154H499.82a1.5,1.5,0,1,1,0-3H552.2a1.5,1.5,0,0,1,0,3Z" transform="translate(-410.38 -61)"/><path class="cls-3" d="M495.58,166H488.5a1.5,1.5,0,0,1,0-3h7.08a1.5,1.5,0,0,1,0,3Z" transform="translate(-410.38 -61)"/><path class="cls-3" d="M535.21,119H488.5a1.5,1.5,0,0,1,0-3h46.71a1.5,1.5,0,0,1,0,3Z" transform="translate(-410.38 -61)"/><path class="cls-3" d="M563.52,119h-18.4a1.5,1.5,0,0,1,0-3h18.4a1.5,1.5,0,0,1,0,3Z" transform="translate(-410.38 -61)"/><path class="cls-3" d="M542.29,130H495.58a1.5,1.5,0,1,1,0-3h46.71a1.5,1.5,0,0,1,0,3Z" transform="translate(-410.38 -61)"/><path class="cls-3" d="M589,130H556.44a1.5,1.5,0,0,1,0-3H589a1.5,1.5,0,0,1,0,3Z" transform="translate(-410.38 -61)"/><path class="cls-3" d="M510.37,197h-4.76a1.5,1.5,0,0,1,0-3h4.76a1.5,1.5,0,0,1,0,3Z" transform="translate(-410.38 -61)"/><path class="cls-3" d="M542.69,197H518.92a1.5,1.5,0,0,1,0-3h23.77a1.5,1.5,0,0,1,0,3Z" transform="translate(-410.38 -61)"/><path class="cls-3" d="M556,209H538.89a1.5,1.5,0,0,1,0-3H556a1.5,1.5,0,0,1,0,3Z" transform="translate(-410.38 -61)"/><path class="cls-3" d="M531.28,209H496.11a1.5,1.5,0,0,1,0-3h35.17a1.5,1.5,0,0,1,0,3Z" transform="translate(-410.38 -61)"/><path class="cls-3" d="M519.87,174H488.5a1.5,1.5,0,0,1,0-3h31.37a1.5,1.5,0,0,1,0,3Z" transform="translate(-410.38 -61)"/><path class="cls-3" d="M538.89,174H526.53a1.5,1.5,0,0,1,0-3h12.36a1.5,1.5,0,0,1,0,3Z" transform="translate(-410.38 -61)"/><path class="cls-3" d="M524.63,185H493.25a1.5,1.5,0,0,1,0-3h31.38a1.5,1.5,0,0,1,0,3Z" transform="translate(-410.38 -61)"/><path class="cls-3" d="M556,185H534.13a1.5,1.5,0,0,1,0-3H556a1.5,1.5,0,0,1,0,3Z" transform="translate(-410.38 -61)"/><g class="cls-4"><rect class="cls-5" x="13.24" y="60" width="53" height="44" rx="6.82"/><path class="cls-2" d="M469.8,119.5H430.45a8.33,8.33,0,0,0-8.33,8.32v30.36a8.33,8.33,0,0,0,8.33,8.32H469.8a8.33,8.33,0,0,0,8.32-8.32V127.82A8.33,8.33,0,0,0,469.8,119.5Zm5.32,38.68a5.32,5.32,0,0,1-5.32,5.32H430.45a5.33,5.33,0,0,1-5.33-5.32V127.82a5.33,5.33,0,0,1,5.33-5.32H469.8a5.32,5.32,0,0,1,5.32,5.32Z" transform="translate(-410.38 -61)"/></g><g class="cls-4"><path class="cls-2" d="M560.55,61H418.7a8.33,8.33,0,0,0-8.32,8.32v97.36A8.33,8.33,0,0,0,418.7,175H560.55a8.33,8.33,0,0,0,8.33-8.32V69.32A8.33,8.33,0,0,0,560.55,61Zm5.33,105.68a5.33,5.33,0,0,1-5.33,5.32H418.7a5.32,5.32,0,0,1-5.32-5.32V69.32A5.32,5.32,0,0,1,418.7,64H560.55a5.33,5.33,0,0,1,5.33,5.32Z" transform="translate(-410.38 -61)"/></g><g class="cls-4"><rect class="cls-6" x="92.24" y="10" width="53" height="44" rx="6.82"/><path class="cls-2" d="M548.8,69.5H509.45a8.33,8.33,0,0,0-8.33,8.32v30.36a8.34,8.34,0,0,0,5.47,7.82,8.47,8.47,0,0,0,2.86.5H548.8a8.43,8.43,0,0,0,2.86-.5,8.34,8.34,0,0,0,5.46-7.82V77.82A8.33,8.33,0,0,0,548.8,69.5Zm5.32,38.68a5.32,5.32,0,0,1-5.32,5.32H509.45a5.33,5.33,0,0,1-5.33-5.32V77.82a5.33,5.33,0,0,1,5.33-5.32H548.8a5.32,5.32,0,0,1,5.32,5.32Z" transform="translate(-410.38 -61)"/></g><g class="cls-4"><path class="cls-2" d="M443.63,99.5h-13a1.5,1.5,0,0,1,0-3h13a1.5,1.5,0,0,1,0,3Z" transform="translate(-410.38 -61)"/><path class="cls-2" d="M455.63,99.5h-5a1.5,1.5,0,0,1,0-3h5a1.5,1.5,0,0,1,0,3Z" transform="translate(-410.38 -61)"/><path class="cls-2" d="M489.63,99.5h-25a1.5,1.5,0,0,1,0-3h25a1.5,1.5,0,0,1,0,3Z" transform="translate(-410.38 -61)"/><path class="cls-2" d="M489.63,111.5h-18a1.5,1.5,0,0,1,0-3h18a1.5,1.5,0,0,1,0,3Z" transform="translate(-410.38 -61)"/><path class="cls-2" d="M463.63,111.5h-37a1.5,1.5,0,0,1,0-3h37a1.5,1.5,0,0,1,0,3Z" transform="translate(-410.38 -61)"/><path class="cls-2" d="M469.63,77.5h-33a1.5,1.5,0,0,1,0-3h33a1.5,1.5,0,0,1,0,3Z" transform="translate(-410.38 -61)"/><path class="cls-2" d="M489.63,77.5h-13a1.5,1.5,0,0,1,0-3h13a1.5,1.5,0,0,1,0,3Z" transform="translate(-410.38 -61)"/><path class="cls-2" d="M456.63,87.5h-33a1.5,1.5,0,0,1,0-3h33a1.5,1.5,0,0,1,0,3Z" transform="translate(-410.38 -61)"/><path class="cls-2" d="M489.63,87.5h-23a1.5,1.5,0,0,1,0-3h23a1.5,1.5,0,0,1,0,3Z" transform="translate(-410.38 -61)"/></g><g class="cls-4"><path class="cls-2" d="M548.63,149.5h-13a1.5,1.5,0,0,1,0-3h13a1.5,1.5,0,0,1,0,3Z" transform="translate(-410.38 -61)"/><path class="cls-2" d="M528.63,149.5h-5a1.5,1.5,0,0,1,0-3h5a1.5,1.5,0,0,1,0,3Z" transform="translate(-410.38 -61)"/><path class="cls-2" d="M514.63,149.5h-25a1.5,1.5,0,0,1,0-3h25a1.5,1.5,0,0,1,0,3Z" transform="translate(-410.38 -61)"/><path class="cls-2" d="M507.63,161.5h-18a1.5,1.5,0,0,1,0-3h18a1.5,1.5,0,0,1,0,3Z" transform="translate(-410.38 -61)"/><path class="cls-2" d="M552.63,161.5h-37a1.5,1.5,0,0,1,0-3h37a1.5,1.5,0,0,1,0,3Z" transform="translate(-410.38 -61)"/><path class="cls-2" d="M542.63,127.5h-33a1.5,1.5,0,0,1,0-3h33a1.5,1.5,0,0,1,0,3Z" transform="translate(-410.38 -61)"/><path class="cls-2" d="M502.63,127.5h-13a1.5,1.5,0,0,1,0-3h13a1.5,1.5,0,0,1,0,3Z" transform="translate(-410.38 -61)"/><path class="cls-2" d="M555.63,137.5h-33a1.5,1.5,0,0,1,0-3h33a1.5,1.5,0,0,1,0,3Z" transform="translate(-410.38 -61)"/><path class="cls-2" d="M512.63,137.5h-23a1.5,1.5,0,0,1,0-3h23a1.5,1.5,0,0,1,0,3Z" transform="translate(-410.38 -61)"/></g><path class="cls-7" d="M434,196.54H416.24a2.23,2.23,0,0,0-2.23,2.23v2.68a2.23,2.23,0,0,0,2.23,2.23H434a2.23,2.23,0,0,0,2.23-2.23v-2.68A2.23,2.23,0,0,0,434,196.54Zm.23,4.91a.23.23,0,0,1-.23.23H416.24a.23.23,0,0,1-.23-.23v-2.68a.23.23,0,0,1,.23-.23H434a.23.23,0,0,1,.23.23Z" transform="translate(-410.38 -61)"/><path class="cls-7" d="M434,187.35H416.24a2.23,2.23,0,0,0-2.23,2.23v2.69a2.23,2.23,0,0,0,2.23,2.23H434a2.23,2.23,0,0,0,2.23-2.23v-2.69A2.23,2.23,0,0,0,434,187.35Zm.23,4.92a.23.23,0,0,1-.23.23H416.24a.23.23,0,0,1-.23-.23v-2.69a.23.23,0,0,1,.23-.23H434a.23.23,0,0,1,.23.23Z" transform="translate(-410.38 -61)"/><path class="cls-7" d="M434,206.09H416.24a2.23,2.23,0,0,0-2.23,2.23V211a2.23,2.23,0,0,0,2.23,2.23H434a2.23,2.23,0,0,0,2.23-2.23v-2.68A2.23,2.23,0,0,0,434,206.09Zm.23,4.91a.23.23,0,0,1-.23.23H416.24A.23.23,0,0,1,416,211v-2.68a.23.23,0,0,1,.23-.23H434a.23.23,0,0,1,.23.23Z" transform="translate(-410.38 -61)"/><path class="cls-2" d="M440.3,200.27v6.84h21v4.48l2.22-1.28,1.39-.8,1.45-.84L477.91,202l3-1.74ZM466.38,207l-1.51.87-1.49.86-.59.34v-3.4h-21v-3.91h33.68Z" transform="translate(-410.38 -61)"/><path class="cls-2" d="M459.9,191.47V187l-19.6,11.32h40.62v-6.85Zm19.56,5.38H445.78l12.66-7.31v3.4h21Z" transform="translate(-410.38 -61)"/><line class="cls-8" x1="16.92" y1="140" x2="17.92" y2="140"/></svg>