<svg id="ps" xmlns="http://www.w3.org/2000/svg" viewBox="0 0 171.56 122.43"><defs><style>.cls-1{fill:#6ff;}</style></defs><title>ps</title><path class="cls-1" d="M880.71,278.73H734.81A12.84,12.84,0,0,0,722,291.56v96.77a12.84,12.84,0,0,0,12.83,12.83h145.9a12.84,12.84,0,0,0,12.83-12.83V291.56A12.85,12.85,0,0,0,880.71,278.73Zm7.83,109.6a7.84,7.84,0,0,1-7.83,7.83H734.81a7.83,7.83,0,0,1-7.76-6.78l38.56-43.09a6.73,6.73,0,0,1,5-2.26h0a6.7,6.7,0,0,1,5,2.22l23.14,25.38a11.81,11.81,0,0,0,17.66-.24L856,325.64a6.81,6.81,0,0,1,9.86-.47l22.71,21.76Zm-19.25-66.77a11.8,11.8,0,0,0-17.1.81l-39.47,45.75a6.84,6.84,0,0,1-5.06,2.36h-.09a6.83,6.83,0,0,1-5-2.22L779.4,342.88a11.81,11.81,0,0,0-8.72-3.85h-.06a11.81,11.81,0,0,0-8.74,3.93L727,382V291.56a7.84,7.84,0,0,1,7.83-7.83h145.9a7.84,7.84,0,0,1,7.83,7.83V340Z" transform="translate(-721.98 -278.73)"/><path class="cls-1" d="M817.49,292.79a12.09,12.09,0,1,0,12.08,12.09A12.1,12.1,0,0,0,817.49,292.79Zm0,19.17a7.09,7.09,0,1,1,7.08-7.08A7.09,7.09,0,0,1,817.49,312Z" transform="translate(-721.98 -278.73)"/><path class="cls-1" d="M781.07,310.61a11.9,11.9,0,0,0-1.34.08A12.23,12.23,0,0,0,759,317.91a8.35,8.35,0,0,0-4,7.09,4,4,0,0,0,4,4h28.07a4,4,0,0,0,3.44-2,10.91,10.91,0,0,0-9.44-16.42Zm6,14.39H759a4.32,4.32,0,0,1,4-4.31,8.23,8.23,0,0,1,15.23-5.46,6.74,6.74,0,0,1,2.84-.62,6.92,6.92,0,0,1,6,10.39Z" transform="translate(-721.98 -278.73)"/></svg>