<svg id="sql" xmlns="http://www.w3.org/2000/svg" viewBox="0 0 80.94 94.15"><defs><style>.cls-1{fill:#ffd499;}</style></defs><title>sql</title><path class="cls-1" d="M1021.77,286.59H957.05a8.12,8.12,0,0,0-8.11,8.12v9.75a8.12,8.12,0,0,0,8.11,8.11h64.72a8.12,8.12,0,0,0,8.11-8.11v-9.75A8.12,8.12,0,0,0,1021.77,286.59Zm.84,17.87a.82.82,0,0,1-.84.83H957.05a.82.82,0,0,1-.83-.83v-9.75a.82.82,0,0,1,.83-.84h64.72a.83.83,0,0,1,.84.84Z" transform="translate(-948.94 -253.16)"/><path class="cls-1" d="M1021.77,253.16H957.05a8.12,8.12,0,0,0-8.11,8.11v9.79a8.12,8.12,0,0,0,8.11,8.11h64.72a8.12,8.12,0,0,0,8.11-8.11v-9.79A8.12,8.12,0,0,0,1021.77,253.16Zm.84,17.9a.85.85,0,0,1-.84.84H957.05a.84.84,0,0,1-.83-.84v-9.79a.84.84,0,0,1,.83-.83h64.72a.85.85,0,0,1,.84.83Z" transform="translate(-948.94 -253.16)"/><path class="cls-1" d="M1021.77,321.34H957.05a8.12,8.12,0,0,0-8.11,8.11v9.75a8.12,8.12,0,0,0,8.11,8.11h64.72a8.12,8.12,0,0,0,8.11-8.11v-9.75A8.12,8.12,0,0,0,1021.77,321.34Zm.84,17.86a.82.82,0,0,1-.84.83H957.05a.82.82,0,0,1-.83-.83v-9.75a.82.82,0,0,1,.83-.84h64.72a.83.83,0,0,1,.84.84Z" transform="translate(-948.94 -253.16)"/></svg>