<svg id="tailwind_css" xmlns="http://www.w3.org/2000/svg" viewBox="0 0 138.68 155.21"><defs><style>.cls-1{fill:#cce3eb;}</style></defs><title>tailwind_css</title><path class="cls-1" d="M630.81,222H571.15a10.49,10.49,0,0,0-10.47,10.47v43.59a10.48,10.48,0,0,0,7,9.86v22.52H543.36a6.84,6.84,0,0,1-6.83-6.83v-4.94h7.77a10.49,10.49,0,0,0,10.48-10.48V259.05a10.49,10.49,0,0,0-10.48-10.47H513.08a10.49,10.49,0,0,0-10.47,10.47v27.14a10.49,10.49,0,0,0,10.47,10.48h19.81v4.94a10.49,10.49,0,0,0,10.47,10.47h24.29v65.13h3.64v-49.1H581a10.5,10.5,0,0,0,10.31-8.66h34.79A10.49,10.49,0,0,0,636.56,309V301.7a10.49,10.49,0,0,0-10.47-10.48H590.6a10.49,10.49,0,0,0-10.47,10.48V309a10.48,10.48,0,0,0,7.55,10,6.84,6.84,0,0,1-6.69,5.43h-9.7V286.54h59.52a10.49,10.49,0,0,0,10.47-10.48V232.47A10.49,10.49,0,0,0,630.81,222ZM506.25,286.19V259.05a6.84,6.84,0,0,1,6.83-6.83H544.3a6.84,6.84,0,0,1,6.83,6.83v27.14A6.84,6.84,0,0,1,544.3,293H513.08A6.84,6.84,0,0,1,506.25,286.19ZM583.77,309V301.7a6.85,6.85,0,0,1,6.83-6.84h35.49a6.84,6.84,0,0,1,6.83,6.84V309a6.83,6.83,0,0,1-6.83,6.83H590.6A6.84,6.84,0,0,1,583.77,309Zm53.87-32.92a6.84,6.84,0,0,1-6.83,6.84H571.15a6.85,6.85,0,0,1-6.83-6.84V232.47a6.85,6.85,0,0,1,6.83-6.83h59.66a6.84,6.84,0,0,1,6.83,6.83Z" transform="translate(-502.61 -222)"/><path class="cls-1" d="M611.93,329.14H604v6.54a5.5,5.5,0,0,0,5.49,5.5h7.94v-6.55A5.51,5.51,0,0,0,611.93,329.14Zm1.85,8.39h-4.3a1.85,1.85,0,0,1-1.85-1.85v-2.9h4.3a1.85,1.85,0,0,1,1.85,1.85Z" transform="translate(-502.61 -222)"/><path class="cls-1" d="M554.48,336,548,337.11a5.5,5.5,0,0,0-4.5,6.33l1.32,7.82,6.45-1.08a5.49,5.49,0,0,0,4.5-6.33Zm-3.79,10.57-2.85.48-.72-4.24a1.85,1.85,0,0,1,1.52-2.13l2.86-.48.71,4.23A1.86,1.86,0,0,1,550.69,346.59Z" transform="translate(-502.61 -222)"/><path class="cls-1" d="M526.57,312.77,518.83,311l-1.45,6.38a5.5,5.5,0,0,0,4.13,6.57l7.74,1.77,1.46-6.38a5.5,5.5,0,0,0-4.14-6.57Zm.59,5.76-.65,2.83-4.19-1a1.86,1.86,0,0,1-1.39-2.21l.64-2.83,4.19,1a1.85,1.85,0,0,1,1.4,2.21Z" transform="translate(-502.61 -222)"/></svg>